<?xml version="1.0" encoding="utf-8"?>
<!-- Generator: Adobe Illustrator 27.5.0, SVG Export Plug-In . SVG Version: 6.00 Build 0)  -->
<svg version="1.1" xmlns="http://www.w3.org/2000/svg" xmlns:xlink="http://www.w3.org/1999/xlink" x="0px" y="0px"
	 viewBox="0 0 500 500" style="enable-background:new 0 0 500 500;" xml:space="preserve">
<g id="Floor">
	<ellipse id="Floor_2_" style="fill:#F5F5F5;" cx="249.531" cy="330.113" rx="239.591" ry="138.328"/>
</g>
<g id="Shadows">
	<path id="Shadow_12_" style="fill:#E0E0E0;" d="M111.734,335.699l-74.313-42.905c-1.913-1.105-1.913-2.895,0-4L228.72,178.348
		c1.913-1.105,5.015-1.105,6.928,0l74.313,42.905c1.913,1.105,1.913,2.895,0,4L118.662,335.699
		C116.749,336.804,113.647,336.804,111.734,335.699z"/>
	<path id="Shadow_5_" style="fill:#E0E0E0;" d="M346.493,213.921l-22.785-13.155c-0.64-0.369-1.676-0.369-2.316,0l-22.786,13.155
		c-0.639,0.369-0.639,0.968,0,1.337l22.786,13.156c0.64,0.369,1.676,0.369,2.316,0l22.786-13.156
		C347.133,214.889,347.133,214.291,346.493,213.921z"/>
	<ellipse id="Shadow_18_" style="fill:#E0E0E0;" cx="99.859" cy="360.542" rx="19.826" ry="11.447"/>
	<ellipse id="Shadow_21_" style="fill:#E0E0E0;" cx="209.761" cy="428.423" rx="36.301" ry="20.958"/>
	<ellipse id="Shadow_20_" style="fill:#E0E0E0;" cx="58.551" cy="350.321" rx="29.942" ry="17.287"/>
	<path id="Shadow_23_" style="fill:#E0E0E0;" d="M454.136,324.119l-72.638-42.05c-1.107-0.632-2.306-0.745-2.704-0.563l-0.685,0.395
		c0,0-0.349,1.21,0.763,1.832l24.705,14.402l-24.642,14.662l-25.309-14.736c-1.104-0.637-2.263-1.208-3.366-0.571l0,0
		c-1.103,0.637-0.831,1.181,0.273,1.818l71.098,41.997l28.816-16.495L454.136,324.119z"/>
</g>
<g id="Ballons_2_">
	<g id="Ballons">
		<g id="XMLID_445_">
			<g>
				<g id="XMLID_778_">
					<polygon id="XMLID_1201_" style="fill:#27DEBF;" points="323.5,224.537 303.675,213.079 303.675,205.043 303.257,204.802 
						303.257,198.958 323.5,210.645 					"/>
					<polygon id="XMLID_1301_" style="opacity:0.1;" points="323.5,224.537 303.675,213.079 303.675,205.043 303.257,204.802 
						303.257,198.958 323.5,210.645 					"/>
				</g>
				<polygon id="XMLID_1326_" style="opacity:0.15;" points="323.499,216.489 315.91,212.107 303.675,205.043 303.675,205.883 
					323.499,217.327 				"/>
				<polygon id="XMLID_1194_" style="fill:#27DEBF;" points="323.499,224.537 343.215,213.163 343.215,205.105 343.742,204.802 
					343.742,198.958 323.5,210.645 				"/>
				<polygon id="XMLID_1200_" style="opacity:0.1;" points="343.218,205.105 323.499,216.489 323.499,217.327 343.218,205.954 				
					"/>
				<g id="XMLID_776_">
					<polygon id="XMLID_1111_" style="fill:#27DEBF;" points="343.742,198.958 323.5,187.271 303.257,198.958 323.5,210.645 					
						"/>
					<polygon id="XMLID_777_" style="opacity:0.4;fill:#FFFFFF;" points="343.742,198.958 323.5,187.271 303.257,198.958 
						323.5,210.645 					"/>
				</g>
			</g>
			<g>
				<path style="fill:#455A64;" d="M333.621,219.185c-0.276,0-0.5-0.224-0.5-0.5v-13.607l-19.993-11.543
					c-0.239-0.138-0.321-0.444-0.183-0.683c0.137-0.239,0.444-0.32,0.683-0.183l20.243,11.687c0.154,0.089,0.25,0.254,0.25,0.433
					v13.896C334.121,218.961,333.898,219.185,333.621,219.185z"/>
				<path style="fill:#455A64;" d="M313.208,219.183c-0.276,0-0.5-0.224-0.5-0.5v-13.892c0-0.179,0.096-0.344,0.25-0.433
					l20.242-11.687c0.238-0.138,0.545-0.057,0.683,0.183c0.139,0.239,0.057,0.545-0.183,0.683l-19.992,11.543v13.604
					C313.708,218.959,313.485,219.183,313.208,219.183z"/>
			</g>
		</g>
		<g id="Ballons_1_">
			<g>
				<path style="fill:#455A64;" d="M323.329,199.288c-0.001,0-0.002,0-0.003,0c-0.247-0.001-0.455-0.183-0.491-0.426l-10.128-68.124
					c-0.041-0.273,0.147-0.528,0.421-0.568c0.272-0.035,0.527,0.148,0.567,0.421l9.655,64.943l8.053-49.621
					c0.043-0.273,0.308-0.46,0.573-0.414c0.272,0.044,0.458,0.301,0.413,0.574l-8.567,52.796
					C323.784,199.11,323.575,199.288,323.329,199.288z"/>
			</g>
			<g>
				<path style="fill:#455A64;" d="M323.331,199.288c-0.013,0-0.025-0.001-0.038-0.001c-0.275-0.021-0.482-0.261-0.462-0.536
					l6.912-91.875c0.021-0.276,0.269-0.486,0.536-0.461c0.275,0.021,0.483,0.261,0.462,0.536l-6.912,91.875
					C323.808,199.088,323.589,199.288,323.331,199.288z"/>
			</g>
			<g id="XMLID_264_">
				<g id="XMLID_295_">
					<path id="XMLID_311_" style="fill:#27DEBF;" d="M315.674,132.639L315.674,132.639c-0.116-0.881-2.261-3.065-2.609-3.019
						c-0.348,0.046-1.686,2.628-1.562,3.567l0,0c0.041,0.31,0.284,0.593,0.72,0.776c0.872,0.366,2.193,0.193,2.95-0.387
						C315.551,133.285,315.715,132.949,315.674,132.639L315.674,132.639L315.674,132.639z"/>
					<path id="XMLID_303_" style="opacity:0.1;" d="M315.674,132.639L315.674,132.639c-0.116-0.881-2.261-3.065-2.609-3.019
						c-0.348,0.046-1.686,2.628-1.562,3.567l0,0c0.041,0.31,0.284,0.593,0.72,0.776c0.872,0.366,2.193,0.193,2.95-0.387
						C315.551,133.285,315.715,132.949,315.674,132.639L315.674,132.639L315.674,132.639z"/>
					<path id="XMLID_462_" style="opacity:0.2;" d="M315.674,132.639L315.674,132.639c-0.116-0.881-2.261-3.065-2.609-3.019
						c-0.348,0.046-1.686,2.628-1.562,3.567l0,0c0.041,0.31,0.284,0.593,0.72,0.776c0.872,0.366,2.193,0.193,2.95-0.387
						C315.551,133.285,315.715,132.949,315.674,132.639L315.674,132.639L315.674,132.639z"/>
				</g>
				<path id="XMLID_294_" style="fill:#27DEBF;" d="M323.211,112.163c0.887,6.753-3.291,15.975-10.009,18.499
					c-7.225-1.034-13.559-8.535-14.445-15.288c-0.887-6.753,2.635-13.63,10.513-14.664
					C317.146,99.676,322.324,105.41,323.211,112.163z"/>
				<path id="XMLID_457_" style="opacity:0.2;" d="M323.211,112.163c0.887,6.753-3.291,15.975-10.009,18.499
					c-7.225-1.034-13.559-8.535-14.445-15.288c-0.887-6.753,2.635-13.63,10.513-14.664
					C317.146,99.676,322.324,105.41,323.211,112.163z"/>
				<path id="XMLID_265_" style="opacity:0.1;" d="M299.747,118.833c0,0,2.67,6.241,10.758,5.706
					c7.793-0.515,12.964-9.824,11.993-15.412c0.336,0.974,0.576,1.993,0.713,3.036c0.887,6.753-3.291,15.975-10.009,18.499
					c-5.988-0.857-11.36-6.156-13.53-11.79L299.747,118.833z"/>
			</g>
			<g id="XMLID_312_">
				<g id="XMLID_379_">
					<path id="XMLID_408_" style="fill:#27DEBF;" d="M333.4,148.777L333.4,148.777c0.238-0.857-0.884-3.705-1.222-3.799
						c-0.338-0.094-2.579,1.76-2.832,2.673l0,0c-0.084,0.301,0.03,0.657,0.36,0.996c0.66,0.678,1.944,1.034,2.867,0.796
						C333.034,149.323,333.316,149.077,333.4,148.777L333.4,148.777L333.4,148.777z"/>
					<path id="XMLID_380_" style="opacity:0.1;" d="M333.4,148.777L333.4,148.777c0.238-0.857-0.884-3.705-1.222-3.799
						c-0.338-0.094-2.579,1.76-2.832,2.673l0,0c-0.084,0.301,0.03,0.657,0.36,0.996c0.66,0.678,1.944,1.034,2.867,0.796
						C333.034,149.323,333.316,149.077,333.4,148.777L333.4,148.777L333.4,148.777z"/>
					<path id="XMLID_485_" style="opacity:0.5;fill:#FFFFFF;" d="M333.4,148.777L333.4,148.777c0.238-0.857-0.884-3.705-1.222-3.799
						c-0.338-0.094-2.579,1.76-2.832,2.673l0,0c-0.084,0.301,0.03,0.657,0.36,0.996c0.66,0.678,1.944,1.034,2.867,0.796
						C333.034,149.323,333.316,149.077,333.4,148.777L333.4,148.777L333.4,148.777z"/>
				</g>
				<path id="XMLID_337_" style="fill:#27DEBF;" d="M348.34,132.875c-1.823,6.563-9.272,13.418-16.443,13.117
					c-6.247-3.775-9.145-13.156-7.322-19.718c1.823-6.563,7.753-11.516,15.407-9.39C347.637,119.01,350.162,126.312,348.34,132.875z
					"/>
				<path id="XMLID_463_" style="opacity:0.5;fill:#FFFFFF;" d="M348.34,132.875c-1.823,6.563-9.272,13.418-16.443,13.117
					c-6.247-3.775-9.145-13.156-7.322-19.718c1.823-6.563,7.753-11.516,15.407-9.39C347.637,119.01,350.162,126.312,348.34,132.875z
					"/>
				<path id="XMLID_315_" style="opacity:0.05;" d="M324.135,129.844c0,0,0.019,6.788,7.672,9.456
					c7.374,2.571,15.772-3.977,17.062-9.5c-0.071,1.028-0.248,2.06-0.53,3.074c-1.823,6.563-9.272,13.418-16.443,13.117
					c-5.177-3.129-8.051-10.106-7.847-16.14L324.135,129.844z"/>
			</g>
			<g id="XMLID_421_">
				<g id="XMLID_438_">
					<path id="XMLID_444_" style="fill:#27DEBF;" d="M332.186,109.409L332.186,109.409c0.092-0.884-1.487-3.507-1.836-3.543
						s-2.25,2.164-2.349,3.106l0,0c-0.032,0.311,0.138,0.643,0.52,0.922c0.764,0.559,2.088,0.697,2.959,0.309
						C331.916,110.009,332.154,109.72,332.186,109.409L332.186,109.409L332.186,109.409z"/>
					<path id="XMLID_439_" style="opacity:0.1;" d="M332.186,109.409L332.186,109.409c0.092-0.884-1.487-3.507-1.836-3.543
						s-2.25,2.164-2.349,3.106l0,0c-0.032,0.311,0.138,0.643,0.52,0.922c0.764,0.559,2.088,0.697,2.959,0.309
						C331.916,110.009,332.154,109.72,332.186,109.409L332.186,109.409L332.186,109.409z"/>
				</g>
				<path id="XMLID_437_" style="fill:#27DEBF;" d="M344.276,91.246c-0.707,6.774-6.914,14.772-14.035,15.666
					c-6.787-2.685-11.204-11.453-10.496-18.227c0.707-6.774,5.731-12.644,13.633-11.819
					C341.28,77.691,344.984,84.472,344.276,91.246z"/>
				<path id="XMLID_429_" style="opacity:0.05;" d="M319.905,92.279c0,0,1.146,6.691,9.137,8.05
					c7.699,1.31,14.892-6.542,15.247-12.202c0.1,1.025,0.097,2.072-0.012,3.119c-0.707,6.774-6.914,14.772-14.035,15.666
					c-5.625-2.225-9.618-8.628-10.419-14.612L319.905,92.279z"/>
			</g>
		</g>
	</g>
</g>
<g id="Calendar_1_">
	<g id="Calendar">
		<g>
			<path id="XMLID_987_" style="fill:#27DEBF;" d="M55.823,295.913c-0.988-0.571-1.572-1.995-1.304-3.182l31.239-138.278
				c0.268-1.187,1.339-2.642,2.393-3.25L274.02,43.892c1.053-0.608,2.709-0.639,3.697-0.068c0.988,0.571,1.572,1.995,1.304,3.182
				l-31.239,138.278c-0.268,1.187-1.339,2.642-2.393,3.25L59.521,295.845C58.467,296.453,56.812,296.484,55.823,295.913z"/>
			<path id="XMLID_986_" style="opacity:0.8;fill:#FFFFFF;" d="M55.823,295.913c-0.988-0.571-1.572-1.995-1.304-3.182
				l31.239-138.278c0.268-1.187,1.339-2.642,2.393-3.25L274.02,43.892c1.053-0.608,2.709-0.639,3.697-0.068
				c0.988,0.571,1.572,1.995,1.304,3.182l-31.239,138.278c-0.268,1.187-1.339,2.642-2.393,3.25L59.521,295.845
				C58.467,296.453,56.812,296.484,55.823,295.913z"/>
			<path id="XMLID_985_" style="fill:#27DEBF;" d="M89.337,156.52L58.098,294.798c-0.268,1.187,0.369,1.655,1.422,1.047
				l185.869-107.311c1.054-0.608,2.125-2.063,2.393-3.25l31.239-138.278c0.268-1.187-0.369-1.655-1.422-1.047L91.73,153.27
				C90.677,153.878,89.605,155.333,89.337,156.52z"/>
			<path id="XMLID_984_" style="opacity:0.6;fill:#FFFFFF;" d="M89.337,156.52L58.098,294.798c-0.268,1.187,0.369,1.655,1.422,1.047
				l185.869-107.311c1.054-0.608,2.125-2.063,2.393-3.25l31.239-138.278c0.268-1.187-0.369-1.655-1.422-1.047L91.73,153.27
				C90.677,153.878,89.605,155.333,89.337,156.52z"/>
			<path id="XMLID_983_" style="opacity:0.05;" d="M89.337,156.52L58.098,294.798c-0.268,1.187,0.369,1.655,1.422,1.047
				l185.869-107.311c1.054-0.608,2.125-2.063,2.393-3.25l31.239-138.278c0.268-1.187-0.369-1.655-1.422-1.047L91.73,153.27
				C90.677,153.878,89.605,155.333,89.337,156.52z"/>
		</g>
		<g>
			<g>
				<path id="XMLID_982_" style="fill:#27DEBF;" d="M281.297,45.89c-0.989-0.571-2.644-0.54-3.698,0.068L91.73,153.27
					c-1.054,0.608-1.768,2.078-1.597,3.282l24.432,171.275c0.172,1.204,1.112,2.643,2.1,3.214c0.988,0.571,2.643,0.54,3.697-0.068
					l185.87-107.311c1.053-0.608,1.768-2.078,1.597-3.282L283.397,49.104C283.226,47.9,282.285,46.461,281.297,45.89z"/>
				<path id="XMLID_981_" style="opacity:0.8;fill:#FFFFFF;" d="M281.297,45.89c-0.989-0.571-2.644-0.54-3.698,0.068L91.73,153.27
					c-1.054,0.608-1.768,2.078-1.597,3.282l24.432,171.275c0.172,1.204,1.112,2.643,2.1,3.214c0.988,0.571,2.643,0.54,3.697-0.068
					l185.87-107.311c1.053-0.608,1.768-2.078,1.597-3.282L283.397,49.104C283.226,47.9,282.285,46.461,281.297,45.89z"/>
			</g>
			<g>
				<path id="XMLID_980_" style="fill:#27DEBF;" d="M93.713,158.618l24.431,171.275c0.172,1.204,1.165,1.688,2.219,1.079
					l185.87-107.311c1.053-0.608,1.768-2.078,1.597-3.282L283.397,49.104c-0.172-1.204-1.165-1.688-2.219-1.079L95.309,155.336
					C94.256,155.944,93.541,157.414,93.713,158.618z"/>
				<path id="XMLID_979_" style="opacity:0.95;fill:#FFFFFF;" d="M93.713,158.618l24.431,171.275
					c0.172,1.204,1.165,1.688,2.219,1.079l185.87-107.311c1.053-0.608,1.768-2.078,1.597-3.282L283.397,49.104
					c-0.172-1.204-1.165-1.688-2.219-1.079L95.309,155.336C94.256,155.944,93.541,157.414,93.713,158.618z"/>
			</g>
		</g>
		<g>
			<g>
				<path style="fill:#27DEBF;" d="M107.255,276.554l-21.824,12.592h-0.008c-0.456-0.104-0.92-0.128-1.344-0.048l-25.744,4.96
					c-0.024,0.008-0.04,0.008-0.048,0.008h-0.024l47.568-27.48L107.255,276.554z"/>
				<path style="opacity:0.5;fill:#FFFFFF;" d="M107.255,276.554l-21.824,12.592h-0.008c-0.456-0.104-0.92-0.128-1.344-0.048
					l-25.744,4.96c-0.024,0.008-0.04,0.008-0.048,0.008h-0.024l47.568-27.48L107.255,276.554z"/>
				<path style="opacity:0.2;" d="M107.255,276.554l-21.824,12.592h-0.008c-0.456-0.104-0.92-0.128-1.344-0.048l-25.744,4.96
					c-0.024,0.008-0.04,0.008-0.048,0.008h-0.024l47.568-27.48L107.255,276.554z"/>
			</g>
			<g>
				<path style="fill:#27DEBF;" d="M114.375,326.49l-26.816-36.128c-0.456-0.608-1.224-1.072-2.032-1.272l21.728-12.536
					L114.375,326.49z"/>
				<path style="opacity:0.6;fill:#FFFFFF;" d="M114.375,326.49l-26.816-36.128c-0.456-0.608-1.224-1.072-2.032-1.272l21.728-12.536
					L114.375,326.49z"/>
				<path style="opacity:0.1;" d="M114.375,326.49l-26.816-36.128c-0.456-0.608-1.224-1.072-2.032-1.272l21.728-12.536
					L114.375,326.49z"/>
			</g>
			<g>
				<path id="XMLID_978_" style="fill:#27DEBF;" d="M113.533,328.177l-25.945-33.703c-0.742-0.964-2.32-1.605-3.524-1.431
					l-24.271,3.503c-1.204,0.174-2.981-0.148-3.97-0.719c-0.988-0.571-0.821-1.22,0.373-1.449l27.884-5.366
					c1.195-0.23,2.751,0.376,3.476,1.352l29.585,39.855c0.725,0.977,0.512,1.306-0.476,0.735
					C115.678,330.385,114.275,329.141,113.533,328.177z"/>
				<path id="XMLID_977_" style="opacity:0.8;fill:#FFFFFF;" d="M113.533,328.177l-25.945-33.703
					c-0.742-0.964-2.32-1.605-3.524-1.431l-24.271,3.503c-1.204,0.174-2.981-0.148-3.97-0.719c-0.988-0.571-0.821-1.22,0.373-1.449
					l27.884-5.366c1.195-0.23,2.751,0.376,3.476,1.352l29.585,39.855c0.725,0.977,0.512,1.306-0.476,0.735
					C115.678,330.385,114.275,329.141,113.533,328.177z"/>
			</g>
		</g>
		<g id="XMLID_888_">
			<path id="XMLID_975_" style="fill:#27DEBF;" d="M279.078,46.325c-0.018-1.004-0.555-2.044-1.357-2.502
				c-0.996-0.564-2.643-0.538-3.7,0.07L88.15,151.208c-0.511,0.291-1.022,0.793-1.454,1.357c-0.449,0.599-0.802,1.286-0.943,1.894
				l-4.405,19.534l3.578,2.054L274.611,66.534l4.411-19.527C279.079,46.753,279.076,46.533,279.078,46.325L279.078,46.325z"/>
			<path id="XMLID_974_" style="opacity:0.6;" d="M279.021,47.006c0.268-1.187-0.369-1.655-1.422-1.047L91.73,153.27
				c-1.054,0.608-2.125,2.063-2.393,3.25l-4.412,19.526L274.61,66.532L279.021,47.006z"/>
			<path id="XMLID_973_" style="opacity:0.5;" d="M90.273,154.634c-0.449,0.599-0.802,1.278-0.934,1.885l-4.413,19.527l-3.579-2.055
				l4.405-19.534c0.141-0.608,0.493-1.295,0.943-1.894L90.273,154.634z"/>
			<path id="XMLID_972_" style="opacity:0.2;" d="M279.078,46.324c-0.088-0.661-0.661-0.837-1.48-0.361L91.726,153.268
				c-0.511,0.291-1.031,0.793-1.454,1.366l-3.577-2.07c0.432-0.564,0.943-1.066,1.454-1.357L274.02,43.892
				c1.057-0.608,2.705-0.634,3.701-0.07C278.522,44.279,279.06,45.319,279.078,46.324z"/>
		</g>
		<g id="XMLID_883_">
			<path id="XMLID_887_" style="fill:#27DEBF;" d="M283.625,50.745l0.006-0.003l-0.233-1.637c-0.011-0.078-0.034-0.158-0.051-0.238
				c-0.005-0.021-0.007-0.046-0.013-0.067c0-0.002-0.001-0.003-0.002-0.005c-0.271-1.132-1.129-2.381-2.034-2.904
				c-0.989-0.571-2.644-0.54-3.697,0.068L91.73,153.27c-0.541,0.312-0.989,0.852-1.278,1.465l-0.004,0.004
				c-0.273,0.582-0.396,1.225-0.317,1.815l3.507,24.538l3.577,2.07L286.902,73.655L283.625,50.745z"/>
			<path style="opacity:0.4;" d="M286.902,73.655L97.215,183.162l-3.504-24.544c-0.08-0.584,0.04-1.232,0.32-1.816
				c0.288-0.616,0.744-1.152,1.28-1.464L281.183,48.026c0.928-0.544,1.808-0.224,2.128,0.704c0.008,0.024,0.016,0.048,0.024,0.072
				c0,0.016,0.008,0.04,0.008,0.064c0.024,0.08,0.04,0.16,0.056,0.24l0.232,1.632l-0.008,0.008L286.902,73.655z"/>
			<path id="XMLID_886_" style="opacity:0.5;" d="M97.215,183.163l-3.577-2.07l-3.507-24.538c-0.079-0.59,0.044-1.233,0.317-1.815
				l3.586,2.062c-0.282,0.581-0.405,1.233-0.326,1.815L97.215,183.163z"/>
			<path id="XMLID_884_" style="opacity:0.3;" d="M283.333,48.799c-0.291-0.978-1.198-1.331-2.15-0.775L95.312,155.339
				c-0.537,0.309-0.995,0.846-1.278,1.463l-3.586-2.062c0.291-0.617,0.74-1.154,1.278-1.471L277.597,45.962
				c1.057-0.608,2.714-0.643,3.7-0.07C282.205,46.42,283.069,47.663,283.333,48.799z"/>
		</g>
		<g>
			<g style="opacity:0.2;">
				<path id="XMLID_882_" d="M110.755,158.818c-0.301-2.109,1.057-4.743,3.032-5.884c1.975-1.141,3.82-0.357,4.121,1.752
					c0.301,2.109-1.057,4.743-3.032,5.884C112.901,161.711,111.056,160.926,110.755,158.818z"/>
				<path id="XMLID_881_" d="M135.831,144.344c-0.301-2.109,1.056-4.743,3.032-5.884c1.975-1.141,3.821-0.357,4.121,1.752
					c0.301,2.109-1.057,4.743-3.032,5.884C137.977,147.237,136.132,146.453,135.831,144.344z"/>
				<path id="XMLID_880_" d="M160.864,129.887c-0.301-2.109,1.057-4.743,3.032-5.885c1.975-1.141,3.82-0.357,4.121,1.752
					c0.301,2.109-1.056,4.743-3.032,5.884C163.01,132.779,161.165,131.995,160.864,129.887z"/>
				<path id="XMLID_874_" d="M210.959,100.966c-0.301-2.109,1.057-4.743,3.032-5.884c1.975-1.141,3.82-0.357,4.121,1.752
					c0.301,2.109-1.056,4.743-3.032,5.884C213.105,103.859,211.26,103.075,210.959,100.966z"/>
				<path id="XMLID_873_" d="M236.034,86.493c-0.301-2.109,1.056-4.743,3.032-5.884c1.975-1.141,3.821-0.357,4.121,1.752
					c0.301,2.109-1.056,4.743-3.032,5.884C238.18,89.386,236.335,88.602,236.034,86.493z"/>
				<path id="XMLID_871_" d="M261.068,72.035c-0.301-2.109,1.056-4.743,3.032-5.884c1.975-1.141,3.82-0.357,4.121,1.752
					c0.301,2.109-1.056,4.743-3.032,5.884C263.214,74.928,261.369,74.143,261.068,72.035z"/>
			</g>
			<g>
				<path style="fill:#37474F;" d="M118.343,151.266c0,0.744-0.064,1.472-0.192,2.168c-0.072,0.376-0.16,0.744-0.272,1.088
					c-0.536,1.8-1.56,3.168-2.992,3.992c-0.944,0.552-2.008,0.832-3.168,0.832c-0.288,0-0.576-0.016-0.872-0.056
					c-0.04-0.152-0.072-0.304-0.096-0.472c-0.128-0.912,0.056-1.928,0.464-2.872c0.76,0.096,1.432-0.024,1.992-0.344
					c1.128-0.656,1.552-2.032,1.696-3.12c0.016-0.056,0.016-0.104,0.024-0.152c0.032-0.312,0.056-0.664,0.056-1.064
					c0-3.104-1.32-6.624-3.344-9.496c-0.72-1.016-1.52-1.944-2.376-2.752c-0.76-0.704-1.552-1.312-2.384-1.792
					c-1.832-1.04-3.512-1.272-4.648-0.624c-1.152,0.664-1.784,2.208-1.784,4.336c0,0.928,0.128,1.92,0.368,2.96l-3.008,1.736
					l-0.056-0.2c-0.44-1.576-0.664-3.088-0.664-4.496c0-3.384,1.232-5.96,3.464-7.248c2.224-1.288,5.064-1.064,8.008,0.632
					c1.304,0.752,2.552,1.768,3.696,2.968c0.808,0.856,1.576,1.8,2.264,2.816C116.84,143.514,118.343,147.626,118.343,151.266z"/>
				<path style="fill:#37474F;" d="M143.415,136.794c0,0.744-0.064,1.472-0.184,2.168c-0.072,0.384-0.16,0.76-0.272,1.112
					c-0.544,1.784-1.568,3.144-3,3.968c-0.936,0.552-2.008,0.832-3.168,0.832c-0.28,0-0.568-0.016-0.856-0.056
					c-0.048-0.144-0.08-0.304-0.104-0.472c-0.128-0.912,0.048-1.928,0.456-2.872c0.768,0.088,1.44-0.024,1.992-0.344
					c1.136-0.656,1.552-2.032,1.696-3.12c0.008-0.048,0.016-0.104,0.024-0.152c0.04-0.312,0.056-0.656,0.056-1.064
					c0-3.104-1.32-6.624-3.344-9.496c-0.712-1.016-1.512-1.952-2.376-2.752c-0.752-0.704-1.552-1.312-2.384-1.792
					c-1.824-1.04-3.512-1.272-4.648-0.624c-1.144,0.664-1.784,2.2-1.784,4.336c0,0.92,0.128,1.912,0.376,2.952l-3.016,1.736
					l-0.056-0.2c-0.44-1.568-0.664-3.08-0.664-4.488c0-3.384,1.232-5.96,3.472-7.248c2.216-1.288,5.064-1.064,8,0.624
					c1.312,0.76,2.56,1.776,3.696,2.976c0.816,0.856,1.576,1.808,2.264,2.816C141.919,129.042,143.415,133.154,143.415,136.794z"/>
				<path style="fill:#37474F;" d="M168.447,122.338c0,0.744-0.064,1.472-0.184,2.168c-0.072,0.384-0.16,0.752-0.272,1.104
					c-0.544,1.792-1.568,3.152-3,3.976c-0.936,0.552-2.008,0.832-3.168,0.832c-0.28,0-0.568-0.016-0.856-0.056
					c-0.048-0.144-0.08-0.304-0.104-0.472c-0.128-0.912,0.048-1.928,0.456-2.872c0.768,0.088,1.44-0.024,1.992-0.344
					c1.144-0.656,1.56-2.04,1.696-3.128c0.016-0.048,0.016-0.096,0.024-0.144c0.04-0.312,0.056-0.664,0.056-1.064
					c0-3.104-1.32-6.616-3.344-9.488c-0.712-1.016-1.512-1.952-2.376-2.76c-0.752-0.704-1.552-1.312-2.384-1.792
					c-1.824-1.04-3.512-1.272-4.648-0.624c-1.144,0.664-1.784,2.2-1.784,4.336c0,0.928,0.128,1.92,0.368,2.96l-3.008,1.736
					l-0.056-0.208c-0.44-1.568-0.664-3.08-0.664-4.488c0-3.384,1.232-5.96,3.464-7.248c2.224-1.288,5.072-1.064,8.008,0.632
					c1.304,0.752,2.552,1.768,3.696,2.968c0.816,0.856,1.576,1.8,2.272,2.816C166.951,114.586,168.447,118.698,168.447,122.338z"/>
				<path style="fill:#37474F;" d="M218.551,93.458c0,0.736-0.056,1.472-0.184,2.168c-0.072,0.392-0.16,0.76-0.272,1.12
					c-0.544,1.776-1.568,3.136-3,3.96c-0.936,0.544-2,0.824-3.16,0.824c-0.288,0-0.576-0.016-0.864-0.056
					c-0.048-0.16-0.088-0.328-0.112-0.504c-0.128-0.904,0.048-1.904,0.44-2.84c0.776,0.096,1.456-0.016,2.024-0.336
					c1.144-0.664,1.56-2.064,1.696-3.168c0.008-0.04,0.008-0.072,0.016-0.112c0.04-0.304,0.056-0.656,0.056-1.056
					c0-3.12-1.328-6.648-3.36-9.528c-0.72-1.016-1.52-1.944-2.392-2.752c-0.744-0.688-1.536-1.288-2.352-1.76
					c-1.824-1.048-3.512-1.272-4.648-0.624c-1.144,0.656-1.776,2.2-1.776,4.336c0,0.904,0.112,1.88,0.352,2.912l-3.008,1.736
					l-0.048-0.16c-0.44-1.576-0.664-3.088-0.664-4.488c0-3.392,1.232-5.96,3.472-7.248c2.224-1.288,5.064-1.072,8,0.624
					c1.296,0.744,2.536,1.752,3.672,2.944c0.816,0.856,1.584,1.8,2.272,2.816C217.048,85.682,218.551,89.802,218.551,93.458z"/>
				<path style="fill:#37474F;" d="M243.632,78.978c0,0.752-0.064,1.48-0.192,2.176c-0.072,0.392-0.16,0.76-0.272,1.12
					c-0.544,1.776-1.568,3.136-2.992,3.952c-0.944,0.552-2.008,0.832-3.168,0.832c-0.28,0-0.576-0.016-0.864-0.056
					c-0.048-0.16-0.088-0.328-0.112-0.512c-0.128-0.904,0.048-1.896,0.448-2.832c0.776,0.096,1.456-0.016,2.016-0.344
					c1.144-0.656,1.568-2.056,1.704-3.16c0.008-0.04,0.008-0.072,0.016-0.112c0.032-0.312,0.056-0.656,0.056-1.064
					c0-3.112-1.328-6.648-3.368-9.52c-0.72-1.016-1.52-1.952-2.384-2.76c-0.744-0.688-1.536-1.288-2.352-1.76
					c-1.824-1.04-3.512-1.272-4.648-0.616c-1.152,0.656-1.784,2.2-1.784,4.336c0,0.904,0.12,1.88,0.36,2.904l-3.016,1.744
					l-0.04-0.16c-0.44-1.576-0.664-3.08-0.664-4.488c0-3.392,1.232-5.968,3.464-7.248c2.224-1.296,5.072-1.072,8.008,0.624
					c1.296,0.752,2.536,1.76,3.656,2.944h0.008c0.824,0.856,1.584,1.8,2.272,2.816C242.119,71.21,243.632,75.33,243.632,78.978z"/>
				<path style="fill:#37474F;" d="M268.664,64.522c0,0.752-0.064,1.48-0.192,2.176c-0.072,0.376-0.16,0.744-0.272,1.088
					c-0.536,1.792-1.56,3.16-2.992,3.992c-0.944,0.544-2.008,0.824-3.168,0.824c-0.28,0-0.568-0.016-0.856-0.056
					c-0.048-0.16-0.088-0.336-0.112-0.512c-0.128-0.904,0.048-1.896,0.44-2.832c0.768,0.096,1.448-0.016,2.016-0.344
					c1.144-0.656,1.56-2.056,1.696-3.16c0.008-0.04,0.008-0.072,0.016-0.112c0.04-0.312,0.064-0.656,0.064-1.064
					c0-3.112-1.328-6.648-3.368-9.52c-0.72-1.016-1.528-1.952-2.392-2.752c-0.744-0.696-1.528-1.288-2.344-1.76
					c-1.832-1.048-3.512-1.272-4.648-0.624c-1.152,0.656-1.784,2.2-1.784,4.336c0,0.904,0.12,1.88,0.36,2.912l-3.016,1.736
					l-0.04-0.16c-0.44-1.576-0.664-3.088-0.664-4.488c0-3.392,1.232-5.96,3.464-7.248c2.224-1.288,5.064-1.072,8.008,0.624
					c1.296,0.744,2.528,1.752,3.664,2.936c0.816,0.856,1.584,1.808,2.272,2.824C267.151,56.754,268.664,60.874,268.664,64.522z"/>
			</g>
		</g>
		<g id="XMLID_490_">
			<g id="XMLID_866_">
				<g id="XMLID_869_">
					<polygon id="XMLID_870_" style="fill:#27DEBF;" points="101.356,212.004 291.027,102.589 286.902,73.655 97.215,183.082 					
						"/>
				</g>
				<g id="XMLID_867_" style="opacity:0.65;">
					<polygon id="XMLID_868_" style="fill:#FFFFFF;" points="101.356,212.004 291.027,102.589 286.902,73.655 97.215,183.082 					
						"/>
				</g>
			</g>
			<g id="XMLID_851_">
				<g id="XMLID_864_">
					<path id="XMLID_865_" style="fill:#27DEBF;" d="M116.309,219.026c0.228,1.597,1.707,2.145,3.304,1.223l14.234-8.214
						c1.597-0.922,2.706-2.964,2.477-4.561c-0.229-1.597-1.708-2.145-3.305-1.223l-14.233,8.214
						C117.191,215.387,116.081,217.429,116.309,219.026z"/>
				</g>
				<g id="XMLID_862_">
					<path id="XMLID_863_" style="fill:#27DEBF;" d="M140.317,205.164c0.228,1.597,1.707,2.144,3.303,1.223l14.234-8.214
						c1.597-0.922,2.706-2.964,2.477-4.561c-0.229-1.597-1.708-2.145-3.305-1.223l-14.233,8.214
						C141.199,201.525,140.089,203.567,140.317,205.164z"/>
				</g>
				<g id="XMLID_860_">
					<path id="XMLID_861_" style="fill:#27DEBF;" d="M164.325,191.302c0.228,1.597,1.707,2.145,3.304,1.223l14.234-8.214
						c1.597-0.922,2.706-2.964,2.477-4.561c-0.229-1.597-1.708-2.145-3.304-1.223l-14.233,8.214
						C165.206,187.663,164.097,189.705,164.325,191.302z"/>
				</g>
				<g id="XMLID_858_">
					<path id="XMLID_859_" style="fill:#27DEBF;" d="M188.333,177.44c0.228,1.597,1.707,2.145,3.304,1.223l14.234-8.214
						c1.596-0.922,2.706-2.964,2.477-4.561c-0.229-1.597-1.708-2.145-3.305-1.223l-14.233,8.214
						C189.215,173.801,188.105,175.843,188.333,177.44z"/>
				</g>
				<g id="XMLID_856_">
					<path id="XMLID_857_" style="fill:#27DEBF;" d="M212.341,163.578c0.228,1.597,1.707,2.145,3.304,1.223l14.234-8.214
						c1.597-0.922,2.706-2.964,2.477-4.561c-0.229-1.597-1.708-2.145-3.304-1.223l-14.233,8.214
						C213.223,159.939,212.113,161.981,212.341,163.578z"/>
				</g>
				<g id="XMLID_854_">
					<path id="XMLID_855_" style="fill:#27DEBF;" d="M236.349,149.716c0.228,1.597,1.707,2.145,3.304,1.223l14.234-8.214
						c1.597-0.922,2.705-2.964,2.477-4.561c-0.228-1.597-1.708-2.145-3.304-1.223l-14.233,8.214
						C237.231,146.077,236.121,148.119,236.349,149.716z"/>
				</g>
				<g id="XMLID_852_">
					<path id="XMLID_853_" style="fill:#27DEBF;" d="M260.357,135.854c0.228,1.597,1.707,2.145,3.304,1.223l14.234-8.214
						c1.596-0.922,2.706-2.964,2.477-4.561c-0.228-1.597-1.708-2.145-3.304-1.223l-14.233,8.214
						C261.239,132.215,260.129,134.257,260.357,135.854z"/>
				</g>
			</g>
			<g>
				<g id="XMLID_792_" style="opacity:0.17;">
					<g id="XMLID_849_">
						<path id="XMLID_850_" style="fill:#27DEBF;" d="M296.158,219.192c-0.397,0.016-0.758-0.246-0.807-0.587l-11.595-80.981
							c-0.049-0.341,0.233-0.63,0.63-0.646c0.397-0.016,0.758,0.246,0.807,0.587l11.595,80.981
							C296.837,218.887,296.555,219.176,296.158,219.192z"/>
					</g>
					<g id="XMLID_847_">
						<path id="XMLID_848_" style="fill:#27DEBF;" d="M272.141,233.06c-0.397,0.016-0.758-0.246-0.807-0.587l-11.596-80.982
							c-0.049-0.341,0.233-0.63,0.63-0.646c0.397-0.016,0.758,0.246,0.807,0.587l11.596,80.982
							C272.82,232.755,272.538,233.044,272.141,233.06z"/>
					</g>
					<g id="XMLID_845_">
						<path id="XMLID_846_" style="fill:#27DEBF;" d="M248.122,246.927c-0.397,0.016-0.758-0.246-0.807-0.587l-11.596-80.982
							c-0.049-0.341,0.233-0.63,0.63-0.646c0.397-0.016,0.758,0.246,0.807,0.587l11.596,80.982
							C248.801,246.621,248.519,246.91,248.122,246.927z"/>
					</g>
					<g id="XMLID_843_">
						<path id="XMLID_844_" style="fill:#27DEBF;" d="M224.103,260.793c-0.397,0.016-0.758-0.246-0.807-0.587L211.7,179.224
							c-0.049-0.341,0.233-0.63,0.63-0.646s0.758,0.246,0.807,0.587l11.596,80.982C224.782,260.488,224.501,260.777,224.103,260.793
							z"/>
					</g>
					<g id="XMLID_841_">
						<path id="XMLID_842_" style="fill:#27DEBF;" d="M200.086,274.661c-0.397,0.016-0.758-0.246-0.807-0.587l-11.598-80.983
							c-0.049-0.341,0.233-0.63,0.63-0.646c0.397-0.016,0.758,0.246,0.807,0.587l11.598,80.983
							C200.765,274.356,200.483,274.645,200.086,274.661z"/>
					</g>
					<g id="XMLID_839_">
						<path id="XMLID_840_" style="fill:#27DEBF;" d="M176.068,288.528c-0.397,0.016-0.758-0.246-0.807-0.587l-11.596-80.982
							c-0.049-0.341,0.233-0.63,0.63-0.646c0.397-0.016,0.758,0.246,0.807,0.587l11.596,80.982
							C176.747,288.223,176.465,288.512,176.068,288.528z"/>
					</g>
					<g id="XMLID_837_">
						<path id="XMLID_838_" style="fill:#27DEBF;" d="M152.049,302.395c-0.397,0.016-0.758-0.247-0.807-0.587l-11.596-80.982
							c-0.049-0.341,0.233-0.63,0.63-0.646c0.397-0.016,0.758,0.246,0.807,0.587l11.596,80.982
							C152.728,302.089,152.446,302.379,152.049,302.395z"/>
					</g>
					<g id="XMLID_835_">
						<path id="XMLID_836_" style="fill:#27DEBF;" d="M128.032,316.263c-0.397,0.016-0.758-0.246-0.807-0.587l-11.598-80.983
							c-0.049-0.341,0.233-0.63,0.63-0.646c0.397-0.016,0.758,0.246,0.807,0.587l11.598,80.983
							C128.711,315.957,128.429,316.246,128.032,316.263z"/>
					</g>
					<g id="XMLID_833_">
						<path id="XMLID_834_" style="fill:#27DEBF;" d="M119.333,255.526c-0.247,0.01-0.506-0.091-0.666-0.283
							c-0.242-0.287-0.178-0.669,0.142-0.853l168.128-97.07c0.316-0.186,0.773-0.103,1.013,0.185
							c0.241,0.287,0.177,0.669-0.142,0.852l-168.128,97.07C119.575,255.49,119.455,255.521,119.333,255.526z"/>
					</g>
					<g id="XMLID_831_">
						<path id="XMLID_832_" style="fill:#27DEBF;" d="M122.231,275.771c-0.247,0.01-0.506-0.091-0.666-0.283
							c-0.242-0.287-0.178-0.669,0.142-0.853l168.128-97.068c0.316-0.188,0.773-0.103,1.013,0.185
							c0.242,0.287,0.178,0.669-0.142,0.853l-168.128,97.068C122.473,275.734,122.354,275.766,122.231,275.771z"/>
					</g>
					<g id="XMLID_829_">
						<path id="XMLID_830_" style="fill:#27DEBF;" d="M125.13,296.016c-0.247,0.01-0.506-0.091-0.666-0.283
							c-0.242-0.287-0.178-0.669,0.142-0.853l168.128-97.068c0.316-0.186,0.773-0.102,1.013,0.185
							c0.241,0.287,0.177,0.669-0.142,0.853l-168.128,97.068C125.372,295.979,125.252,296.011,125.13,296.016z"/>
					</g>
					<g id="XMLID_800_">
						<path id="XMLID_801_" style="fill:#27DEBF;" d="M128.032,316.263c-0.123,0.005-0.252-0.018-0.371-0.069
							c-0.238-0.1-0.404-0.298-0.436-0.519l-11.598-80.983c-0.032-0.221,0.077-0.43,0.283-0.548l168.13-97.068
							c0.206-0.12,0.481-0.131,0.718-0.03c0.237,0.101,0.404,0.299,0.436,0.519l11.595,80.981c0.032,0.22-0.077,0.429-0.283,0.548
							l-168.126,97.071C128.276,316.225,128.155,316.258,128.032,316.263z M117.115,234.99l11.394,79.559l166.791-96.3
							l-11.391-79.556L117.115,234.99z"/>
					</g>
				</g>
				<g id="XMLID_507_" style="opacity:0.17;">
					<g id="XMLID_773_">
						<path id="XMLID_774_" d="M296.158,219.192c-0.397,0.016-0.758-0.246-0.807-0.587l-11.595-80.981
							c-0.049-0.341,0.233-0.63,0.63-0.646c0.397-0.016,0.758,0.246,0.807,0.587l11.595,80.981
							C296.837,218.887,296.555,219.176,296.158,219.192z"/>
					</g>
					<g id="XMLID_768_">
						<path id="XMLID_770_" d="M272.141,233.06c-0.397,0.016-0.758-0.246-0.807-0.587l-11.596-80.982
							c-0.049-0.341,0.233-0.63,0.63-0.646c0.397-0.016,0.758,0.246,0.807,0.587l11.596,80.982
							C272.82,232.755,272.538,233.044,272.141,233.06z"/>
					</g>
					<g id="XMLID_765_">
						<path id="XMLID_767_" d="M248.122,246.927c-0.397,0.016-0.758-0.246-0.807-0.587l-11.596-80.982
							c-0.049-0.341,0.233-0.63,0.63-0.646c0.397-0.016,0.758,0.246,0.807,0.587l11.596,80.982
							C248.801,246.621,248.519,246.91,248.122,246.927z"/>
					</g>
					<g id="XMLID_720_">
						<path id="XMLID_762_" d="M224.103,260.793c-0.397,0.016-0.758-0.246-0.807-0.587L211.7,179.224
							c-0.049-0.341,0.233-0.63,0.63-0.646s0.758,0.246,0.807,0.587l11.596,80.982C224.782,260.488,224.501,260.777,224.103,260.793
							z"/>
					</g>
					<g id="XMLID_711_">
						<path id="XMLID_715_" d="M200.086,274.661c-0.397,0.016-0.758-0.246-0.807-0.587l-11.598-80.983
							c-0.049-0.341,0.233-0.63,0.63-0.646c0.397-0.016,0.758,0.246,0.807,0.587l11.598,80.983
							C200.765,274.356,200.483,274.645,200.086,274.661z"/>
					</g>
					<g id="XMLID_703_">
						<path id="XMLID_710_" d="M176.068,288.528c-0.397,0.016-0.758-0.246-0.807-0.587l-11.596-80.982
							c-0.049-0.341,0.233-0.63,0.63-0.646c0.397-0.016,0.758,0.246,0.807,0.587l11.596,80.982
							C176.747,288.223,176.465,288.512,176.068,288.528z"/>
					</g>
					<g id="XMLID_701_">
						<path id="XMLID_702_" d="M152.049,302.395c-0.397,0.016-0.758-0.247-0.807-0.587l-11.596-80.982
							c-0.049-0.341,0.233-0.63,0.63-0.646c0.397-0.016,0.758,0.246,0.807,0.587l11.596,80.982
							C152.728,302.089,152.446,302.379,152.049,302.395z"/>
					</g>
					<g id="XMLID_694_">
						<path id="XMLID_700_" d="M128.032,316.263c-0.397,0.016-0.758-0.246-0.807-0.587l-11.598-80.983
							c-0.049-0.341,0.233-0.63,0.63-0.646c0.397-0.016,0.758,0.246,0.807,0.587l11.598,80.983
							C128.711,315.957,128.429,316.246,128.032,316.263z"/>
					</g>
					<g id="XMLID_687_">
						<path id="XMLID_688_" d="M119.333,255.526c-0.247,0.01-0.506-0.091-0.666-0.283c-0.242-0.287-0.178-0.669,0.142-0.853
							l168.128-97.07c0.316-0.186,0.773-0.103,1.013,0.185c0.241,0.287,0.177,0.669-0.142,0.852l-168.128,97.07
							C119.575,255.49,119.455,255.521,119.333,255.526z"/>
					</g>
					<g id="XMLID_663_">
						<path id="XMLID_670_" d="M122.231,275.771c-0.247,0.01-0.506-0.091-0.666-0.283c-0.242-0.287-0.178-0.669,0.142-0.853
							l168.128-97.068c0.316-0.188,0.773-0.103,1.013,0.185c0.242,0.287,0.178,0.669-0.142,0.853l-168.128,97.068
							C122.473,275.734,122.354,275.766,122.231,275.771z"/>
					</g>
					<g id="XMLID_599_">
						<path id="XMLID_609_" d="M125.13,296.016c-0.247,0.01-0.506-0.091-0.666-0.283c-0.242-0.287-0.178-0.669,0.142-0.853
							l168.128-97.068c0.316-0.186,0.773-0.102,1.013,0.185c0.241,0.287,0.177,0.669-0.142,0.853l-168.128,97.068
							C125.372,295.979,125.252,296.011,125.13,296.016z"/>
					</g>
					<g id="XMLID_508_">
						<path id="XMLID_509_" d="M128.032,316.263c-0.123,0.005-0.252-0.018-0.371-0.069c-0.238-0.1-0.404-0.298-0.436-0.519
							l-11.598-80.983c-0.032-0.221,0.077-0.43,0.283-0.548l168.13-97.068c0.206-0.12,0.481-0.131,0.718-0.03
							c0.237,0.101,0.404,0.299,0.436,0.519l11.595,80.981c0.032,0.22-0.077,0.429-0.283,0.548l-168.126,97.071
							C128.276,316.225,128.155,316.258,128.032,316.263z M117.115,234.99l11.394,79.559l166.791-96.3l-11.391-79.556
							L117.115,234.99z"/>
					</g>
				</g>
			</g>
			<g id="XMLID_491_">
				<g id="XMLID_505_">
					<path id="XMLID_506_" style="fill:#F28F8F;" d="M214.733,192.052c-0.513-2.46-1.965-4.857-5.033-5.637
						c-3.762-0.956-6.434,1.619-8.379,3.78c-0.514,0.571,0.594,0.784,1.005,0.387c2.048-1.976,6.064-4.03,8.919-1.614
						c2.798,2.368,2.076,6.148,1.208,8.925c-1.446,4.622-6.155,9.206-12.372,9.064c-13.564-0.31-1.925-21.201,5.868-22.675
						c0.629-0.119,0.954-0.999,0.081-1.084c-4.089-0.399-6.509,2.789-8.685,5.206c-2.426,2.694-4.213,5.669-5.186,9.046
						c-1.796,6.231,3.234,13.589,11.602,10.845C211.078,205.894,216.207,199.122,214.733,192.052z"/>
				</g>
				<g id="XMLID_494_">
					<g id="XMLID_501_">
						<path id="XMLID_503_" style="fill:#F28F8F;" d="M276.808,170.421l1.168,1.651c0.074,0.104,0.192,0.137,0.316,0.089
							l1.974-0.767c0.314-0.122,0.502,0.27,0.319,0.664l-1.153,2.476c-0.073,0.156-0.091,0.331-0.049,0.468l0.667,2.171
							c0.106,0.345-0.173,0.815-0.472,0.796l-1.881-0.121c-0.119-0.008-0.248,0.067-0.347,0.2l-1.562,2.108
							c-0.248,0.335-0.609,0.234-0.61-0.172l-0.009-2.55c-0.001-0.161-0.062-0.29-0.165-0.344l-1.632-0.868
							c-0.259-0.138-0.203-0.671,0.094-0.902l1.875-1.455c0.118-0.092,0.21-0.246,0.245-0.413l0.553-2.645
							C276.228,170.387,276.623,170.158,276.808,170.421z"/>
					</g>
					<g id="XMLID_499_">
						<path id="XMLID_500_" style="fill:#F28F8F;" d="M288.274,169.78c-0.513-2.46-1.965-4.857-5.033-5.637
							c-3.762-0.956-6.435,1.619-8.379,3.78c-0.514,0.571,0.594,0.784,1.005,0.387c2.048-1.976,6.064-4.03,8.919-1.614
							c2.798,2.368,2.076,6.148,1.208,8.925c-1.446,4.622-6.155,9.206-12.372,9.064c-13.564-0.31-1.925-21.201,5.868-22.675
							c0.629-0.119,0.954-0.999,0.081-1.084c-4.09-0.399-6.509,2.789-8.685,5.206c-2.426,2.694-4.213,5.669-5.186,9.046
							c-1.797,6.231,3.234,13.589,11.603,10.845C284.619,183.622,289.749,176.85,288.274,169.78z"/>
					</g>
					<g id="XMLID_495_">
						<path id="XMLID_496_" style="fill:#F28F8F;" d="M265.173,208.033c-0.513-2.46-1.965-4.857-5.033-5.637
							c-3.762-0.956-6.434,1.619-8.379,3.78c-0.514,0.571,0.594,0.784,1.005,0.387c2.048-1.976,6.064-4.03,8.919-1.614
							c2.798,2.368,2.076,6.148,1.208,8.925c-1.446,4.622-6.155,9.206-12.372,9.064c-13.564-0.31-1.925-21.201,5.868-22.675
							c0.629-0.119,0.954-0.999,0.081-1.084c-4.09-0.399-6.509,2.789-8.685,5.206c-2.426,2.694-4.213,5.669-5.186,9.046
							c-1.797,6.231,3.234,13.59,11.602,10.845C261.518,221.875,266.647,215.103,265.173,208.033z"/>
					</g>
				</g>
				<g id="XMLID_492_">
					<path id="XMLID_493_" style="fill:#F28F8F;" d="M242.105,201.007c-0.744-1.213-1.847-2.051-2.798-3.114
						c-0.372-0.415-1.312-0.051-1.085,0.445c0.542,1.186,1.672,1.924,2.361,3.001c0.111,0.173,0.241,0.36,0.378,0.551
						c-1.633-1.32-5.164-2.112-6.597-2.563c-4.68-1.475-9.093-1.205-13.498-0.288c-0.421,0.087-0.252,0.46,0.117,0.53
						c0.789,0.149,1.199-0.025,1.957-0.106c2.275-0.245,4.705-0.049,7.046,0.266c2.246,0.302,7.59,1.497,9.913,3.219
						c-2.361-0.577-4.832-0.684-6.29,0.704c-0.165,0.157-0.187,0.486,0.156,0.557c1.484,0.31,2.738-0.048,4.234,0.148
						c1.769,0.232,3.383,0.599,5.06,1.274c0.646,0.26,1.121-0.28,1.096-0.784C244.083,203.425,242.869,202.254,242.105,201.007z"/>
				</g>
			</g>
			<g>
				<path style="fill:#455A64;" d="M158.387,154.044c0.648-0.376,1.241-0.58,1.775-0.612c0.533-0.032,0.995,0.048,1.383,0.24
					c0.39,0.191,0.704,0.467,0.945,0.828c0.241,0.362,0.403,0.742,0.486,1.141c0.037,0.164,0.021,0.323-0.045,0.477
					c-0.066,0.154-0.152,0.262-0.259,0.324l-1.018,0.59c-0.165,0.095-0.295,0.12-0.392,0.076c-0.097-0.045-0.191-0.124-0.284-0.241
					c-0.2-0.269-0.468-0.449-0.804-0.539c-0.337-0.09-0.796,0.033-1.377,0.37c-0.252,0.146-0.486,0.324-0.702,0.533
					c-0.216,0.21-0.397,0.439-0.544,0.685c-0.147,0.246-0.252,0.503-0.316,0.772c-0.065,0.269-0.075,0.536-0.034,0.805
					c0.051,0.326,0.138,0.565,0.262,0.716c0.124,0.152,0.307,0.239,0.548,0.261c0.241,0.022,0.552-0.008,0.93-0.088
					c0.378-0.081,0.847-0.19,1.406-0.329c0.611-0.153,1.145-0.228,1.606-0.225c0.46,0.003,0.85,0.101,1.17,0.294
					c0.321,0.192,0.582,0.476,0.783,0.853c0.202,0.377,0.347,0.855,0.438,1.435c0.098,0.636,0.093,1.284-0.016,1.941
					c-0.109,0.656-0.313,1.283-0.612,1.88c-0.298,0.596-0.691,1.159-1.18,1.689c-0.488,0.53-1.057,0.983-1.707,1.359
					c-0.543,0.314-1.076,0.519-1.6,0.614c-0.524,0.095-1.006,0.073-1.445-0.065c-0.438-0.139-0.814-0.396-1.125-0.77
					c-0.313-0.374-0.531-0.865-0.657-1.47c-0.037-0.164-0.021-0.322,0.045-0.477c0.066-0.154,0.152-0.261,0.259-0.323l1.017-0.59
					c0.166-0.095,0.298-0.126,0.398-0.091c0.102,0.034,0.194,0.12,0.278,0.256c0.096,0.145,0.207,0.28,0.333,0.407
					c0.126,0.129,0.281,0.215,0.468,0.261c0.187,0.046,0.411,0.044,0.673-0.007c0.26-0.052,0.575-0.184,0.944-0.398
					c0.291-0.169,0.567-0.363,0.829-0.583c0.261-0.221,0.483-0.464,0.663-0.732c0.18-0.266,0.316-0.545,0.408-0.838
					c0.092-0.291,0.113-0.601,0.063-0.926c-0.048-0.311-0.156-0.526-0.323-0.646c-0.166-0.119-0.399-0.17-0.697-0.151
					c-0.298,0.02-0.662,0.082-1.087,0.191c-0.427,0.109-0.923,0.218-1.487,0.328c-0.511,0.112-0.966,0.155-1.366,0.132
					c-0.4-0.022-0.745-0.134-1.035-0.336c-0.29-0.203-0.529-0.499-0.716-0.892c-0.188-0.392-0.331-0.907-0.43-1.543
					c-0.099-0.636-0.093-1.279,0.018-1.929c0.11-0.65,0.305-1.265,0.585-1.842c0.28-0.578,0.638-1.113,1.074-1.605
					C157.354,154.761,157.844,154.358,158.387,154.044z"/>
				<path style="fill:#455A64;" d="M165.293,160.45c-0.123-0.792-0.156-1.586-0.1-2.382c0.055-0.795,0.198-1.541,0.43-2.238
					c0.229-0.695,0.542-1.32,0.936-1.872c0.395-0.553,0.864-0.986,1.408-1.301c0.543-0.314,1.057-0.454,1.543-0.42
					c0.486,0.035,0.923,0.207,1.309,0.514c0.386,0.309,0.714,0.743,0.987,1.302c0.271,0.559,0.463,1.199,0.576,1.921l0.148,0.954
					c0.024,0.156,0.006,0.313-0.054,0.47c-0.06,0.158-0.143,0.268-0.251,0.33l-4.856,2.813c0.051,0.326,0.141,0.586,0.271,0.78
					c0.131,0.194,0.287,0.331,0.469,0.411c0.181,0.08,0.38,0.103,0.598,0.071c0.216-0.033,0.431-0.111,0.645-0.235
					c0.309-0.179,0.555-0.371,0.734-0.576c0.18-0.205,0.321-0.413,0.426-0.628c0.088-0.175,0.163-0.304,0.225-0.385
					c0.061-0.081,0.151-0.156,0.266-0.223l1.164-0.674c0.106-0.061,0.209-0.06,0.309,0.005c0.1,0.066,0.156,0.179,0.171,0.34
					c0.021,0.204-0.014,0.502-0.106,0.894c-0.092,0.394-0.256,0.819-0.491,1.279c-0.235,0.461-0.542,0.916-0.92,1.367
					c-0.379,0.45-0.84,0.833-1.383,1.147c-0.544,0.315-1.057,0.461-1.541,0.441c-0.484-0.021-0.921-0.196-1.309-0.525
					c-0.39-0.329-0.722-0.797-0.995-1.402C165.628,162.026,165.425,161.299,165.293,160.45z M168.362,155.204
					c-0.281,0.163-0.512,0.362-0.692,0.597c-0.18,0.236-0.323,0.488-0.429,0.758c-0.106,0.269-0.177,0.541-0.214,0.817
					c-0.036,0.275-0.048,0.525-0.034,0.748l3.287-1.903c-0.053-0.201-0.124-0.403-0.213-0.606c-0.089-0.203-0.209-0.364-0.36-0.484
					c-0.152-0.12-0.335-0.184-0.552-0.189C168.936,154.938,168.672,155.025,168.362,155.204z"/>
				<path style="fill:#455A64;" d="M178.994,158.759c-0.3,0.174-0.576,0.287-0.827,0.34c-0.25,0.052-0.475,0.068-0.674,0.044
					c-0.199-0.023-0.373-0.073-0.523-0.148c-0.149-0.076-0.272-0.155-0.37-0.237l0.702,4.52c0.023,0.156,0.006,0.312-0.054,0.47
					c-0.06,0.158-0.143,0.268-0.249,0.329l-1.105,0.64c-0.107,0.062-0.208,0.058-0.303-0.009c-0.095-0.068-0.155-0.18-0.179-0.336
					l-2.162-13.918c-0.024-0.156-0.007-0.313,0.053-0.471c0.06-0.158,0.144-0.268,0.251-0.33l1.106-0.64
					c0.106-0.061,0.206-0.058,0.302,0.01c0.095,0.068,0.155,0.18,0.179,0.337l0.076,0.487c0.058-0.172,0.137-0.369,0.241-0.591
					c0.103-0.222,0.234-0.447,0.394-0.679c0.16-0.231,0.352-0.458,0.576-0.68c0.225-0.223,0.488-0.421,0.787-0.595
					c0.485-0.281,0.945-0.397,1.381-0.349c0.436,0.048,0.826,0.223,1.175,0.522c0.348,0.299,0.648,0.704,0.901,1.212
					c0.254,0.509,0.441,1.083,0.561,1.721c0.042,0.207,0.086,0.452,0.13,0.735c0.044,0.283,0.077,0.533,0.101,0.75
					c0.082,0.662,0.089,1.341,0.023,2.033c-0.066,0.694-0.202,1.352-0.407,1.971c-0.205,0.62-0.482,1.181-0.831,1.684
					C179.895,158.086,179.478,158.479,178.994,158.759z M179.549,152.842c-0.033-0.413-0.094-0.809-0.185-1.188
					c-0.201-0.886-0.498-1.436-0.89-1.647c-0.392-0.213-0.826-0.18-1.301,0.095c-0.475,0.275-0.843,0.711-1.104,1.31
					c-0.261,0.598-0.357,1.293-0.287,2.085c0.013,0.224,0.045,0.498,0.096,0.823c0.051,0.326,0.102,0.589,0.155,0.789
					c0.163,0.708,0.439,1.179,0.83,1.416c0.391,0.236,0.824,0.217,1.299-0.058c0.474-0.275,0.846-0.71,1.113-1.303
					C179.542,154.567,179.634,153.794,179.549,152.842z"/>
				<path style="fill:#455A64;" d="M185.728,150.28c0.069,0.439,0.203,0.743,0.403,0.912c0.202,0.169,0.52,0.127,0.955-0.126
					l0.887-0.514c0.107-0.062,0.208-0.059,0.303,0.01c0.094,0.069,0.155,0.18,0.179,0.335l0.218,1.401
					c0.024,0.156,0.006,0.313-0.054,0.47c-0.06,0.159-0.143,0.268-0.25,0.33l-1.077,0.623c-0.911,0.528-1.662,0.612-2.251,0.252
					c-0.59-0.36-0.988-1.205-1.194-2.534l-0.709-4.562l-0.96,0.556c-0.107,0.062-0.208,0.059-0.302-0.01
					c-0.095-0.068-0.155-0.18-0.179-0.335l-0.217-1.4c-0.025-0.156-0.007-0.313,0.053-0.472c0.059-0.158,0.143-0.267,0.25-0.329
					l0.96-0.556l-0.538-3.459c-0.024-0.155-0.007-0.312,0.053-0.469c0.06-0.159,0.144-0.269,0.251-0.331l1.105-0.64
					c0.106-0.062,0.207-0.059,0.302,0.01c0.095,0.068,0.156,0.179,0.179,0.335l0.538,3.459l1.876-1.086
					c0.107-0.062,0.208-0.059,0.303,0.009c0.095,0.069,0.155,0.18,0.179,0.337l0.217,1.4c0.024,0.155,0.006,0.313-0.053,0.47
					c-0.06,0.158-0.144,0.268-0.251,0.33l-1.876,1.086L185.728,150.28z"/>
				<path style="fill:#455A64;" d="M188.952,146.748c-0.123-0.792-0.156-1.586-0.1-2.381c0.055-0.795,0.198-1.541,0.429-2.238
					c0.23-0.695,0.542-1.32,0.938-1.872c0.395-0.553,0.863-0.986,1.406-1.3c0.544-0.314,1.057-0.455,1.544-0.42
					c0.486,0.034,0.922,0.207,1.309,0.514c0.386,0.309,0.714,0.743,0.986,1.302c0.272,0.56,0.464,1.2,0.576,1.921l0.148,0.954
					c0.024,0.156,0.006,0.313-0.053,0.47c-0.06,0.158-0.144,0.268-0.25,0.33l-4.857,2.813c0.051,0.326,0.141,0.586,0.271,0.779
					c0.131,0.194,0.287,0.332,0.469,0.412c0.181,0.08,0.38,0.103,0.598,0.07c0.216-0.033,0.431-0.111,0.645-0.235
					c0.31-0.179,0.555-0.371,0.734-0.576c0.18-0.204,0.321-0.413,0.426-0.628c0.09-0.175,0.165-0.304,0.226-0.385
					c0.061-0.081,0.15-0.156,0.266-0.223l1.163-0.674c0.106-0.062,0.209-0.06,0.309,0.005c0.101,0.066,0.157,0.179,0.172,0.34
					c0.021,0.204-0.014,0.502-0.106,0.894c-0.092,0.394-0.256,0.819-0.492,1.279c-0.235,0.461-0.541,0.916-0.921,1.367
					c-0.379,0.449-0.84,0.833-1.383,1.147c-0.543,0.315-1.056,0.461-1.541,0.441c-0.484-0.02-0.92-0.196-1.309-0.525
					c-0.39-0.329-0.72-0.797-0.994-1.401C189.287,148.324,189.084,147.597,188.952,146.748z M192.02,141.502
					c-0.281,0.163-0.512,0.362-0.692,0.597c-0.18,0.235-0.323,0.488-0.429,0.757c-0.106,0.27-0.177,0.541-0.214,0.817
					c-0.036,0.276-0.048,0.525-0.034,0.749l3.287-1.904c-0.053-0.201-0.124-0.402-0.213-0.605c-0.09-0.203-0.209-0.364-0.36-0.484
					c-0.152-0.12-0.335-0.184-0.553-0.189C192.595,141.236,192.33,141.323,192.02,141.502z"/>
				<path style="fill:#455A64;" d="M198.874,136.145c0.169-0.545,0.402-1.022,0.697-1.432c0.295-0.411,0.623-0.719,0.981-0.927
					c0.611-0.354,1.136-0.477,1.575-0.369c0.44,0.107,0.813,0.365,1.12,0.774c0.082-0.357,0.197-0.7,0.346-1.034
					c0.149-0.332,0.316-0.637,0.5-0.915c0.184-0.275,0.382-0.517,0.593-0.724c0.211-0.207,0.423-0.372,0.637-0.496
					c0.552-0.32,1.033-0.452,1.444-0.398c0.409,0.055,0.764,0.244,1.062,0.565c0.298,0.321,0.541,0.755,0.726,1.303
					c0.186,0.547,0.33,1.154,0.433,1.818l0.887,5.708c0.024,0.156,0.006,0.312-0.054,0.471c-0.06,0.158-0.143,0.268-0.249,0.329
					l-1.105,0.64c-0.107,0.062-0.208,0.059-0.303-0.009c-0.095-0.068-0.155-0.18-0.179-0.336l-0.87-5.602
					c-0.15-0.962-0.38-1.561-0.691-1.797c-0.312-0.235-0.695-0.222-1.15,0.042c-0.388,0.225-0.691,0.601-0.911,1.128
					c-0.219,0.528-0.267,1.257-0.144,2.188l0.887,5.708c0.024,0.156,0.006,0.312-0.054,0.47c-0.06,0.159-0.143,0.268-0.249,0.329
					l-1.105,0.64c-0.107,0.062-0.208,0.059-0.303-0.009c-0.095-0.068-0.155-0.181-0.179-0.336l-0.87-5.602
					c-0.149-0.962-0.379-1.561-0.691-1.797c-0.311-0.235-0.695-0.222-1.15,0.042c-0.398,0.23-0.707,0.621-0.928,1.173
					c-0.22,0.552-0.257,1.301-0.11,2.249l0.87,5.602c0.024,0.156,0.006,0.313-0.054,0.471s-0.143,0.268-0.249,0.329l-1.105,0.64
					c-0.107,0.062-0.208,0.059-0.303-0.009c-0.095-0.068-0.155-0.18-0.179-0.336l-1.535-9.887c-0.025-0.156-0.007-0.313,0.053-0.471
					c0.06-0.159,0.144-0.268,0.251-0.33l1.105-0.64c0.106-0.062,0.207-0.059,0.302,0.01c0.095,0.068,0.155,0.18,0.179,0.336
					L198.874,136.145z"/>
				<path style="fill:#455A64;" d="M214.236,125.861c0.485-0.281,0.944-0.397,1.38-0.349c0.436,0.048,0.827,0.223,1.175,0.522
					c0.348,0.299,0.648,0.704,0.901,1.213c0.254,0.509,0.441,1.083,0.561,1.722c0.042,0.207,0.086,0.452,0.13,0.735
					c0.044,0.283,0.077,0.533,0.101,0.75c0.082,0.662,0.089,1.341,0.023,2.033c-0.066,0.694-0.202,1.352-0.407,1.971
					c-0.205,0.619-0.482,1.181-0.831,1.684c-0.351,0.503-0.768,0.896-1.252,1.176c-0.3,0.174-0.576,0.287-0.827,0.34
					c-0.25,0.052-0.475,0.068-0.674,0.044c-0.199-0.023-0.373-0.073-0.523-0.148c-0.149-0.076-0.272-0.155-0.369-0.237l0.076,0.488
					c0.024,0.155,0.006,0.312-0.054,0.47c-0.06,0.159-0.143,0.268-0.249,0.329l-1.105,0.64c-0.106,0.062-0.208,0.059-0.303-0.009
					c-0.095-0.068-0.154-0.18-0.178-0.336l-2.162-13.919c-0.025-0.155-0.007-0.312,0.053-0.47c0.06-0.159,0.144-0.269,0.25-0.33
					l1.105-0.64c0.106-0.061,0.207-0.058,0.302,0.01c0.095,0.068,0.155,0.18,0.179,0.335l0.702,4.52
					c0.058-0.172,0.138-0.37,0.241-0.591c0.103-0.222,0.234-0.447,0.394-0.679c0.16-0.231,0.352-0.458,0.576-0.68
					C213.674,126.232,213.936,126.034,214.236,125.861z M216.386,130.212c-0.201-0.886-0.498-1.436-0.89-1.647
					c-0.392-0.212-0.826-0.18-1.301,0.095c-0.475,0.275-0.842,0.718-1.101,1.331c-0.259,0.612-0.355,1.3-0.29,2.064
					c0.013,0.224,0.045,0.498,0.096,0.823c0.051,0.326,0.102,0.589,0.155,0.79c0.167,0.736,0.445,1.215,0.833,1.437
					c0.389,0.222,0.82,0.196,1.296-0.079c0.474-0.275,0.846-0.71,1.113-1.304c0.267-0.595,0.359-1.368,0.274-2.321
					C216.538,130.987,216.478,130.591,216.386,130.212z"/>
				<path style="fill:#455A64;" d="M219.663,128.961c-0.123-0.792-0.156-1.586-0.1-2.381c0.055-0.795,0.199-1.541,0.429-2.238
					c0.23-0.695,0.542-1.32,0.938-1.872c0.395-0.553,0.863-0.986,1.406-1.3c0.544-0.314,1.057-0.455,1.544-0.42
					c0.486,0.034,0.922,0.207,1.309,0.514c0.386,0.309,0.714,0.743,0.986,1.302c0.272,0.56,0.464,1.2,0.576,1.922l0.148,0.954
					c0.024,0.156,0.006,0.313-0.053,0.47c-0.06,0.158-0.144,0.268-0.25,0.33l-4.857,2.813c0.051,0.326,0.141,0.586,0.271,0.779
					c0.131,0.194,0.287,0.332,0.469,0.412c0.181,0.08,0.38,0.103,0.598,0.07c0.216-0.032,0.431-0.111,0.645-0.235
					c0.31-0.179,0.555-0.371,0.734-0.576c0.18-0.204,0.321-0.413,0.426-0.628c0.09-0.175,0.165-0.304,0.226-0.385
					c0.061-0.081,0.15-0.156,0.266-0.223l1.163-0.674c0.106-0.062,0.209-0.06,0.309,0.006c0.101,0.066,0.157,0.179,0.172,0.34
					c0.021,0.204-0.014,0.502-0.106,0.894c-0.092,0.394-0.256,0.819-0.491,1.279c-0.235,0.46-0.541,0.916-0.921,1.367
					c-0.379,0.449-0.84,0.833-1.383,1.147c-0.543,0.315-1.056,0.461-1.541,0.441c-0.484-0.02-0.92-0.196-1.309-0.525
					c-0.39-0.329-0.72-0.797-0.994-1.401C219.998,130.537,219.795,129.81,219.663,128.961z M222.732,123.716
					c-0.281,0.163-0.512,0.362-0.692,0.597c-0.181,0.235-0.323,0.488-0.429,0.757c-0.106,0.27-0.177,0.541-0.214,0.817
					c-0.036,0.276-0.048,0.525-0.034,0.749l3.287-1.904c-0.053-0.201-0.124-0.402-0.213-0.605c-0.09-0.203-0.209-0.364-0.36-0.484
					c-0.151-0.12-0.335-0.184-0.553-0.189C223.306,123.449,223.041,123.536,222.732,123.716z"/>
				<path style="fill:#455A64;" d="M231.46,118.892c-0.582,0.337-0.972,0.767-1.17,1.291c-0.199,0.524-0.233,1.21-0.101,2.057
					l0.857,5.517c0.024,0.155,0.006,0.312-0.054,0.471c-0.06,0.158-0.143,0.268-0.249,0.329l-1.105,0.64
					c-0.107,0.062-0.208,0.059-0.303-0.009c-0.095-0.068-0.155-0.18-0.179-0.336l-1.535-9.887c-0.025-0.156-0.007-0.313,0.053-0.471
					c0.06-0.159,0.144-0.268,0.251-0.33l1.105-0.64c0.106-0.062,0.207-0.059,0.302,0.01c0.095,0.068,0.155,0.18,0.179,0.336
					l0.076,0.488c0.2-0.486,0.428-0.903,0.686-1.252c0.257-0.349,0.619-0.659,1.084-0.928l0.655-0.379
					c0.106-0.062,0.207-0.059,0.302,0.009c0.094,0.069,0.155,0.181,0.18,0.337l0.217,1.4c0.024,0.156,0.005,0.313-0.054,0.47
					c-0.06,0.159-0.144,0.268-0.25,0.33L231.46,118.892z"/>
			</g>
		</g>
	</g>
</g>
<g id="Ladder_1_">
	<g id="Ladder">
		<path id="XMLID_1967_" style="fill:#37474F;" d="M420.616,175.607l-39.379,107.169l-0.009,0.018
			c-0.088,0.274-0.318,0.53-0.689,0.742c-0.99,0.574-3.235-0.161-2.561-1.495l39.485-107.77c0.486-1.317,1.944-1.997,3.261-1.511
			C422.04,173.246,421.102,174.29,420.616,175.607z"/>
		<g id="XMLID_1966_">
			<polygon id="XMLID_2074_" style="fill:#263238;" points="407.664,273.119 368.176,250.32 368.885,247.174 408.374,269.972 			"/>
		</g>
		<path id="XMLID_488_" style="fill:#37474F;" d="M392.384,191.36l-39.379,107.169l-0.009,0.018
			c-0.088,0.274-0.318,0.53-0.689,0.742c-0.99,0.574-3.235-0.161-2.561-1.495l39.485-107.77c0.486-1.317,1.944-1.997,3.261-1.511
			C393.808,188.999,392.87,190.043,392.384,191.36z"/>
		<g id="XMLID_1965_">
			<polygon id="XMLID_2073_" style="fill:#263238;" points="436.382,256.539 396.895,233.741 397.604,230.595 437.091,253.392 			
				"/>
		</g>
		<path style="fill:#455A64;" d="M454.158,324.426c-0.038,0.18-0.199,0.36-0.473,0.511c-0.416,0.246-0.975,0.369-1.533,0.369
			c-0.549,0-1.107-0.123-1.514-0.36c-0.246-0.151-0.407-0.312-0.483-0.568l-34.922-163.156c-0.076-0.293-0.246-0.823-0.634-0.984
			c-0.104-0.047-0.208-0.066-0.322-0.066c-0.341,0-0.681,0.17-0.842,0.265l-21.066,12.161l-1.997-3.473l21.057-12.161
			c0.918-0.53,1.902-0.795,2.849-0.795c0.682,0,1.335,0.133,1.95,0.407c1.476,0.653,2.546,2.044,2.924,3.814l34.959,163.573
			c0.019,0.095,0.028,0.151,0.038,0.293C454.158,324.322,454.158,324.398,454.158,324.426z"/>
		<g id="XMLID_1962_">
			<path id="XMLID_1963_" style="fill:#27DEBF;" d="M424.472,324.962l-12.828-7.407c-0.423-0.244-0.765-0.837-0.765-1.326v-0.305
				c0-0.488,0.343-1.082,0.765-1.326l30.777-17.769c0.422-0.244,1.108-0.244,1.531,0l12.828,7.407
				c0.423,0.244,0.765,0.837,0.765,1.326v0.305c0,0.488-0.343,1.082-0.765,1.326l-30.777,17.769
				C425.58,325.206,424.895,325.206,424.472,324.962z"/>
			<path id="XMLID_1961_" style="opacity:0.1;" d="M411.103,315.171c-0.139,0.24-0.224,0.51-0.224,0.754v0.305
				c0,0.488,0.343,1.081,0.765,1.325l12.828,7.407c0.211,0.122,0.488,0.183,0.765,0.183v-1.814L411.103,315.171z"/>
			<path id="XMLID_1959_" style="opacity:0.15;" d="M425.237,323.331v1.814c0.277,0,0.554-0.061,0.765-0.183l15.388-8.885
				l15.388-8.884c0.423-0.244,0.765-0.837,0.765-1.326v-0.305c0-0.244-0.086-0.514-0.224-0.754L425.237,323.331z"/>
		</g>
		<g id="XMLID_1955_">
			<path id="XMLID_1960_" style="fill:#27DEBF;" d="M418.91,298.953l-12.828-7.407c-0.423-0.244-0.765-0.837-0.765-1.326v-0.305
				c0-0.488,0.343-1.081,0.765-1.326l30.777-17.769c0.423-0.244,1.108-0.244,1.531,0l12.828,7.407
				c0.423,0.244,0.765,0.837,0.765,1.326v0.305c0,0.488-0.343,1.081-0.765,1.326l-30.777,17.769
				C420.018,299.197,419.332,299.197,418.91,298.953z"/>
			<path id="XMLID_1958_" style="opacity:0.1;" d="M405.541,289.161c-0.138,0.24-0.224,0.51-0.224,0.754v0.305
				c0,0.488,0.343,1.082,0.765,1.326l12.828,7.407c0.211,0.122,0.488,0.183,0.765,0.183v-1.814L405.541,289.161z"/>
			<path id="XMLID_1956_" style="opacity:0.15;" d="M419.675,297.322v1.814c0.277,0,0.554-0.061,0.765-0.183l15.388-8.885
				l15.388-8.884c0.423-0.244,0.765-0.838,0.765-1.326v-0.305c0-0.244-0.086-0.514-0.224-0.754L419.675,297.322z"/>
		</g>
		<g id="XMLID_1950_">
			<path id="XMLID_1954_" style="fill:#27DEBF;" d="M413.348,272.944l-12.828-7.407c-0.423-0.244-0.765-0.837-0.765-1.326v-0.305
				c0-0.488,0.343-1.081,0.765-1.326l30.777-17.769c0.423-0.244,1.108-0.244,1.531,0l12.828,7.407
				c0.423,0.244,0.765,0.838,0.765,1.326v0.305c0,0.488-0.343,1.081-0.765,1.326l-30.777,17.769
				C414.456,273.188,413.77,273.188,413.348,272.944z"/>
			<path id="XMLID_1952_" style="opacity:0.1;" d="M399.978,263.152c-0.138,0.24-0.224,0.51-0.224,0.754v0.305
				c0,0.488,0.343,1.082,0.765,1.326l6.414,3.703l6.414,3.703c0.211,0.122,0.488,0.183,0.765,0.183v-1.814L399.978,263.152z"/>
			<path id="XMLID_1951_" style="opacity:0.15;" d="M414.113,271.313v1.814c0.277,0,0.554-0.061,0.765-0.183l15.388-8.885
				l15.388-8.884c0.423-0.244,0.765-0.838,0.765-1.326v-0.305c0-0.244-0.086-0.514-0.224-0.754L414.113,271.313z"/>
		</g>
		<g id="XMLID_1943_">
			<path id="XMLID_1949_" style="fill:#27DEBF;" d="M407.785,246.935l-12.828-7.407c-0.423-0.244-0.765-0.837-0.765-1.326v-0.305
				c0-0.488,0.343-1.081,0.765-1.326l30.777-17.769c0.423-0.244,1.108-0.244,1.531,0l12.828,7.407
				c0.422,0.244,0.765,0.838,0.765,1.326v0.305c0,0.488-0.343,1.082-0.765,1.326l-30.777,17.769
				C408.893,247.179,408.208,247.179,407.785,246.935z"/>
			<path id="XMLID_1947_" style="opacity:0.15;" d="M408.551,245.304v1.814c0.277,0,0.554-0.061,0.765-0.183l15.388-8.885
				l15.388-8.884c0.423-0.244,0.765-0.838,0.765-1.326v-0.305c0-0.244-0.086-0.514-0.224-0.754L408.551,245.304z"/>
			<path id="XMLID_1946_" style="opacity:0.1;" d="M394.416,237.143c-0.138,0.24-0.224,0.51-0.224,0.754v0.305
				c0,0.488,0.343,1.081,0.765,1.326l12.828,7.407c0.211,0.122,0.488,0.183,0.765,0.183v-1.814L394.416,237.143z"/>
		</g>
		<g id="XMLID_1889_">
			<path id="XMLID_1927_" style="fill:#27DEBF;" d="M402.223,220.926l-21.318-12.305c-0.423-0.244-0.765-0.838-0.765-1.326v-0.305
				c0-0.488,0.343-1.082,0.765-1.326l30.777-17.769c0.423-0.244,1.108-0.244,1.531,0L434.53,200.2
				c0.423,0.244,0.765,0.838,0.765,1.326v0.305c0,0.488-0.343,1.082-0.765,1.326l-30.777,17.769
				C403.331,221.17,402.646,221.17,402.223,220.926z"/>
			<path id="XMLID_1893_" style="opacity:0.15;" d="M402.988,219.295v1.814c0.277,0,0.554-0.061,0.765-0.183l15.388-8.885
				l15.388-8.885c0.423-0.244,0.765-0.837,0.765-1.326v-0.305c0-0.244-0.086-0.514-0.224-0.754L402.988,219.295z"/>
			<path id="XMLID_1890_" style="opacity:0.1;" d="M380.364,206.235c-0.138,0.24-0.224,0.51-0.224,0.754v0.305
				c0,0.488,0.343,1.081,0.765,1.326l21.318,12.306c0.211,0.122,0.488,0.183,0.765,0.183v-1.814L380.364,206.235z"/>
		</g>
		<g>
			<path style="fill:#455A64;" d="M425.444,341.007c-0.028,0.161-0.208,0.35-0.473,0.511c-0.416,0.246-0.975,0.36-1.524,0.36
				c-0.558,0-1.117-0.113-1.524-0.36c-0.208-0.114-0.359-0.256-0.435-0.397l-0.047-0.151l-0.019-0.066l-34.912-163.08
				c-0.691-3.237,1.003-7.05,3.861-8.697l1.997,3.473c-1.363,0.795-2.271,2.839-1.94,4.372l34.969,163.582
				c0.028,0.085,0.038,0.17,0.038,0.312C425.444,340.922,425.444,340.978,425.444,341.007z"/>
		</g>
	</g>
</g>
<g id="Wine_bottle">
	<g id="Wine">
		<g>
			<path style="fill:#27DEBF;" d="M66.072,230.216v-29.973l-7.59,0.312l-7.59-0.312v29.973c-0.191,6.182-16.746,6.478-17.127,30.486
				v89.503c0,5.488,11.289,9.336,24.718,9.336c13.429,0,24.718-3.848,24.718-9.336v-89.503
				C82.818,236.695,66.263,236.398,66.072,230.216z"/>
			<path style="opacity:0.4;" d="M66.072,230.216v-29.973l-7.59,0.312l-7.59-0.312v29.973c-0.191,6.182-16.746,6.478-17.127,30.486
				v89.503c0,5.488,11.289,9.336,24.718,9.336c13.429,0,24.718-3.848,24.718-9.336v-89.503
				C82.818,236.695,66.263,236.398,66.072,230.216z"/>
		</g>
		<path style="fill:#FAFAFA;" d="M58.481,284.56c-5.412,0-10.475-0.626-14.593-1.731v48.877c4.118,1.105,9.181,1.731,14.593,1.731
			c13.429,0,24.718-3.848,24.718-9.336v-48.877C83.199,280.712,71.91,284.56,58.481,284.56z"/>
		<path id="XMLID_1351_" style="fill:#37474F;" d="M50.884,205.106c0.036-2.535,15.244-2.305,15.208,0.23v-11.162
			c0-5.241-15.208-4.823-15.208-0.574V205.106z"/>
	</g>
</g>
<g id="Glass_of_wine_1_">
	<g id="Glass_of_wine">
		<g id="XMLID_14297_">
			<path id="XMLID_2233_" style="fill:#27DEBF;" d="M99.647,309.652c-1.011,0.007-1.821,0.827-1.816,1.833l0.163,40.942
				c0.009,1.895-1.394,3.477-3.267,3.76c-4.023,0.608-6.818,1.937-6.806,3.853c0.017,2.659,5.359,4.78,11.932,4.739
				c6.573-0.042,11.888-2.23,11.871-4.889c-0.012-1.919-2.765-3.213-6.766-3.769c-1.881-0.262-3.305-1.83-3.314-3.729l-0.163-40.924
				C101.475,310.459,100.654,309.647,99.647,309.652z"/>
			<path id="XMLID_785_" style="opacity:0.2;" d="M99.647,309.652c-1.011,0.007-1.821,0.827-1.816,1.833l0.163,40.942
				c0.009,1.895-1.394,3.477-3.267,3.76c-4.023,0.608-6.818,1.937-6.806,3.853c0.017,2.659,5.359,4.78,11.932,4.739
				c6.573-0.042,11.888-2.23,11.871-4.889c-0.012-1.919-2.765-3.213-6.766-3.769c-1.881-0.262-3.305-1.83-3.314-3.729l-0.163-40.924
				C101.475,310.459,100.654,309.647,99.647,309.652z"/>
		</g>
		<g>
			<path style="fill:#27DEBF;" d="M114.302,268.516c-1.068-3.167-6.789-5.618-14.443-5.618c-7.809,0-13.334,2.277-14.399,5.705
				c-1.213,3.302-5.321,22.492-5.263,31.464c0.043,6.762,5.04,18.243,19.609,18.243s19.632-11.369,19.713-18.13
				C119.629,291.153,115.468,271.741,114.302,268.516z"/>
			<path style="opacity:0.1;" d="M114.302,268.516c-1.068-3.167-6.789-5.618-14.443-5.618c-7.809,0-13.334,2.277-14.399,5.705
				c-1.213,3.302-5.321,22.492-5.263,31.464c0.043,6.762,5.04,18.243,19.609,18.243s19.632-11.369,19.713-18.13
				C119.629,291.153,115.468,271.741,114.302,268.516z"/>
		</g>
		<g>
			<path style="fill:#37474F;" d="M115.938,285.67c-0.029-0.173-0.08-0.34-0.153-0.499c-0.549-3.403-7.46-6.096-15.926-6.096
				c-8.528,0-15.475,2.732-15.936,6.17c-0.041,0.112-0.086,0.224-0.106,0.342c-0.42,2.448-0.686,12.226-0.671,14.464
				c0.016,2.587,3.044,15.536,16.668,15.536s16.727-12.854,16.757-15.441C116.598,297.908,116.345,288.125,115.938,285.67z"/>
			<path id="XMLID_2234_" style="fill:#455A64;" d="M115.839,285.605c0,3.607-7.155,6.53-15.98,6.53s-15.98-2.924-15.98-6.53
				c0-3.607,7.155-6.53,15.98-6.53S115.839,281.999,115.839,285.605z"/>
		</g>
		<path id="XMLID_779_" style="opacity:0.15;" d="M112.909,269.386c0,2.945-5.842,5.333-13.049,5.333s-13.049-2.387-13.049-5.333
			c0-2.945,5.842-5.332,13.049-5.332S112.909,266.441,112.909,269.386z"/>
	</g>
</g>
<g id="Characters_1_">
	<path id="Tie_1_" style="fill:#455A64;" d="M468.622,160.61c0.15-3.601,1.407-7.058,1.129-10.691
		c-0.189-2.464-0.645-5.825-3.211-6.938c-0.154-0.067-0.32,0.002-0.354,0.169c-0.044,0.212,0.152,0.316,0.282,0.421
		c1.913,1.552,2.11,4.449,2.22,6.739c0.169,3.546-1.158,6.935-1.257,10.46c-0.1,3.56,0.712,7.043,1.346,10.522
		c0.325,1.786,0.662,3.617,0.647,5.439c-0.012,1.566-0.26,3.121-0.568,4.654c-0.716,3.563-1.628,7.162-1.007,10.811
		c0.035,0.204,0.293,0.305,0.28,0.033c-0.166-3.487,0.933-6.811,1.675-10.173c0.359-1.625,0.664-3.272,0.725-4.939
		c0.065-1.772-0.192-3.533-0.49-5.275C469.404,168.122,468.463,164.413,468.622,160.61z"/>
	<g id="Character_7_">
		<path style="fill:#FFBDA7;" d="M427.504,145.25c-3.903-0.625-6.423,1.033-7.797,7.19c-1.185,5.308-2.188,17.318-2.188,17.318
			s-13.749-6.295-16.87-6.995c-3.121-0.7-4.911-0.764-7.286,1.329c-2.099,1.85-2.864,2.101-2.387,4.257l1.505-0.907
			c0,0,2.343-0.964,3.319,0.536c0.829,1.275,0.795,2.201,0.181,3.347l-0.733,0.423c0,0,0.845,1.339,2.782,0.859
			c1.937-0.48,2.16-1.19,3.52-1.524c1.525-0.374,11.762,5.402,15.676,7.188c4.411,2.012,6.483,1.946,7.621-2.393
			c1.233-4.698,4.145-20.557,4.145-20.557L427.504,145.25z"/>
		<g id="XMLID_1733_">
			<path id="XMLID_1735_" style="fill:#FFBDA7;" d="M436.138,232.72c1.326,14.532,1.803,18.857,2.787,27.999
				c0.203,1.121,0.344,2.085,0.398,2.828c0.091,0.937,7.414,1.213,7.351,0.059c0,0-0.086-1.014-0.118-2.003
				c-0.057-4.523,2.14-13.307,2.482-21.163c0.258-5.926-0.999-8.855-1.768-11.846c0,0,1.879-17.606,2.354-34.528
				c0.165-5.854-1.18-12.221-5.251-18.188l-13.913,2.399c0,0,1.495,20.544,3.143,36.769
				C434.065,219.577,435.526,229.18,436.138,232.72z"/>
			<path id="XMLID_1008_" style="fill:#FFBDA7;" d="M423.326,181.173c-1.737,3.434-11.234,19.585-14.331,30.252
				c-0.745,2.566-1.371,4.825,2.536,12.692c1.923,3.873,3.956,7.774,4.975,9.959c2.66,5.707,4.096,8.294,5.974,12.73
				c0.808,1.91,1.386,5.196,1.386,5.196c3.053,1.965,7.054-1.394,7.054-1.394s-0.609-3.463-0.982-5.162
				c-1.287-5.863-1.444-20.126-8.784-27.529c4.424-7.289,20.578-28.13,23.425-40.872L423.326,181.173z"/>
			<path style="fill:#37474F;" d="M437.066,242.694c2.29,1.453,6.265,1.263,7.869,1.154c1.656-0.112,3.06-0.505,3.946-1.047
				c0.066-0.793,0.122-1.582,0.156-2.362c0.257-5.926-0.999-8.855-1.768-11.846c0,0,1.998-16.069,2.473-32.99
				c0.165-5.854,0.595-13.759-3.476-19.726l-23.876,4.671c-1.737,3.434-10.3,20.211-13.398,30.878
				c-0.745,2.566-1.371,4.825,2.536,12.692c1.563,3.148,3.19,6.298,4.294,8.546c0.069,0.007,0.137,0.015,0.206,0.02
				c0.611,0.048,1.226,0.068,1.838,0.046c1.147-0.041,2.3-0.201,3.41-0.492c1.162-0.305,2.286-0.725,3.352-1.278
				c0.875-0.454,1.663-1.03,2.48-1.568c-1.168-4.275-2.957-8.448-5.957-11.474c2.042-3.365,6.584-9.619,11.162-16.629
				c0.4,4.57,0.839,9.323,1.289,13.755c0.461,4.533,1.923,14.136,2.534,17.675C436.451,236.149,436.83,240.204,437.066,242.694z"/>
			<path style="fill:#263238;" d="M432.315,201.289l-0.001-5.27c0,0-4.716-2.361-6.336-4.815c0,0,0.568,3.192,4.701,5.823
				l0.406,3.707l-8.232,14.543C426.634,209.763,430.293,204.411,432.315,201.289z"/>
			<g>
				<path style="fill:#263238;" d="M448.733,268.732c0,0,0.09,1.387-0.042,1.649c-0.243,0.533-0.896,0.682-1.609,1.519
					c-1.088,1.277-0.894,3.532-1.33,5.581c-0.39,1.834-1.615,3.146-3.414,3.929c-1.799,0.783-4.449,1.272-7.619,0.638
					c-3.17-0.634-3.391-2.514-3.391-2.514s-0.133-1.767,0.664-2.03C432.789,277.24,448.733,268.732,448.733,268.732z"/>
				<path id="XMLID_989_" style="fill:#27DEBF;" d="M448.733,268.732c-0.153,0.261-0.536,0.62-0.923,0.953
					c-0.363,0.313-0.699,0.683-1,1.057c-0.635,0.792-1.123,1.711-1.337,2.708c-0.162,0.756-0.166,1.538-0.304,2.3
					c-0.233,1.287-0.86,2.498-1.768,3.438c-0.947,0.981-2.228,1.36-3.554,1.597c-4.182,0.746-7.317-0.64-8.064-1.84
					c-0.747-1.2,0.045-2.369,2.627-3.963c0.888-0.548,1.599-0.927,2.214-1.828c1.897-2.78,2.111-6.379,1.316-9.589
					c-0.141-0.569-0.264-1.17,0.154-1.663c0.202-0.239,0.49-0.386,0.778-0.508c1.529-0.646,3.295-0.712,4.867-0.18
					c0.093,0.031,0.189,0.067,0.255,0.139c0.1,0.108,0.11,0.268,0.131,0.413c0.079,0.535,0.397,1.031,0.85,1.326
					c0.03,0.019,0.063,0.038,0.098,0.036c0.042-0.003,0.075-0.037,0.103-0.068c0.219-0.243,0.417-0.504,0.591-0.781
					c0.098-0.156,0.193-0.321,0.34-0.432c0.308-0.234,0.54-0.205,0.919-0.128c-0.147,0.892,0.219,1.869,0.659,2.658
					c0.175,0.313,0.447,0.998,0.614,1.316C448.763,266.572,449.054,267.906,448.733,268.732z"/>
				<path id="XMLID_990_" style="opacity:0.4;" d="M448.733,268.732c-0.153,0.261-0.536,0.62-0.923,0.953
					c-0.363,0.313-0.699,0.683-1,1.057c-0.635,0.792-1.123,1.711-1.337,2.708c-0.162,0.756-0.166,1.538-0.304,2.3
					c-0.233,1.287-0.86,2.498-1.768,3.438c-0.947,0.981-2.228,1.36-3.554,1.597c-4.182,0.746-7.317-0.64-8.064-1.84
					c-0.747-1.2,0.045-2.369,2.627-3.963c0.888-0.548,1.599-0.927,2.214-1.828c1.897-2.78,2.111-6.379,1.316-9.589
					c-0.141-0.569-0.264-1.17,0.154-1.663c0.202-0.239,0.49-0.386,0.778-0.508c1.529-0.646,3.295-0.712,4.867-0.18
					c0.093,0.031,0.189,0.067,0.255,0.139c0.1,0.108,0.11,0.268,0.131,0.413c0.079,0.535,0.397,1.031,0.85,1.326
					c0.03,0.019,0.063,0.038,0.098,0.036c0.042-0.003,0.075-0.037,0.103-0.068c0.219-0.243,0.417-0.504,0.591-0.781
					c0.098-0.156,0.193-0.321,0.34-0.432c0.308-0.234,0.54-0.205,0.919-0.128c-0.147,0.892,0.219,1.869,0.659,2.658
					c0.175,0.313,0.447,0.998,0.614,1.316C448.763,266.572,449.054,267.906,448.733,268.732z"/>
				<path style="fill:#FAFAFA;" d="M442.567,279.844c0,0,0.113-2.915-2.996-4.583s-5.038-0.669-6.013,0.004
					c-1.161,0.802-2.831,2.489-1.861,3.758c1.047,1.37,2.754,2.045,5.958,2.145C440.858,281.269,442.567,279.844,442.567,279.844z"
					/>
			</g>
			<g>
				<path style="fill:#263238;" d="M432.427,254.887c0,0,0.394,0.836,0.151,1.369c-0.243,0.533-1.304,1.242-3.616,2.415
					c-0.778,0.395-1.574,1.159-2.454,2.621c-0.966,1.606-2.509,2.866-4.308,3.649c-1.799,0.783-4.449,1.272-7.619,0.638
					c-3.17-0.634-3.391-2.514-3.391-2.514s-0.133-1.767,0.664-2.03C412.652,260.771,432.427,254.887,432.427,254.887z"/>
				<path id="XMLID_988_" style="fill:#27DEBF;" d="M431.377,249.457c-0.206,1.911,1.084,3.534,1.05,5.431
					c-0.91,2.2-4.335,2.483-5.647,4.232c-1.313,1.748-2.886,4.451-7.068,5.197c-4.182,0.746-7.317-0.639-8.064-1.84
					c-0.747-1.2,0.045-2.369,2.627-3.963c2.574-1.589,6.849-6.003,6.852-6.006c0.325-0.381,0.724-0.957,1.015-1.471
					c0.337-0.595,0.345-1.247,0.127-2.568c0.757-0.315,2.352-0.643,3.134-0.397c0.482,0.152,0.959,0.317,1.431,0.496
					c0.315,0.119,0.656,0.259,0.885,0.517c0.244,0.276,0.323,0.729,0.452,1.071c0.048,0.128,0.1,0.262,0.202,0.353
					c0.136,0.122,0.335,0.145,0.517,0.131c0.372-0.029,0.732-0.192,0.999-0.452c0.363-0.354,0.58-0.893,1.055-1.069
					c0.143-0.053,0.336-0.05,0.411,0.083C431.397,249.276,431.386,249.369,431.377,249.457z"/>
				<path id="XMLID_991_" style="opacity:0.4;" d="M431.377,249.457c-0.206,1.911,1.084,3.534,1.05,5.431
					c-0.91,2.2-4.335,2.483-5.647,4.232c-1.313,1.748-2.886,4.451-7.068,5.197c-4.182,0.746-7.317-0.639-8.064-1.84
					c-0.747-1.2,0.045-2.369,2.627-3.963c2.574-1.589,6.849-6.003,6.852-6.006c0.325-0.381,0.724-0.957,1.015-1.471
					c0.337-0.595,0.345-1.247,0.127-2.568c0.757-0.315,2.352-0.643,3.134-0.397c0.482,0.152,0.959,0.317,1.431,0.496
					c0.315,0.119,0.656,0.259,0.885,0.517c0.244,0.276,0.323,0.729,0.452,1.071c0.048,0.128,0.1,0.262,0.202,0.353
					c0.136,0.122,0.335,0.145,0.517,0.131c0.372-0.029,0.732-0.192,0.999-0.452c0.363-0.354,0.58-0.893,1.055-1.069
					c0.143-0.053,0.336-0.05,0.411,0.083C431.397,249.276,431.386,249.369,431.377,249.457z"/>
				<path style="fill:#FAFAFA;" d="M422.429,263.375c0,0,0.113-2.915-2.996-4.583c-3.11-1.667-5.038-0.669-6.013,0.004
					c-1.161,0.802-2.831,2.489-1.861,3.758c1.047,1.37,2.754,2.045,5.958,2.145C420.72,264.799,422.429,263.375,422.429,263.375z"/>
			</g>
		</g>
		<g id="XMLID_1744_">
			<path id="XMLID_996_" style="fill:#F5F5F5;" d="M447.913,162.775c-5.044-2.636-6.306-11.9-5.68-16.409
				c0-0.002-2.688-0.276-2.688-0.276l-12.041-0.84c-1.12,1.78-2.163,2.749-5.824,9.155c-1.805,3.159-1.348,7.986,1.627,11.245
				l0.53,6.953c0,0-0.845,4.443-1.801,8.641c2.443,5.046,14.635,9.114,27.363,2.188c-0.723-4.706-1.761-7.35-3.758-11.969
				C445.641,171.462,446.456,168.445,447.913,162.775z"/>
		</g>
		<g>
			<path style="fill:#FFBDA7;" d="M474.886,144.848c0.04-6.784-1.928-8.673-4.689-9.606c-4.405-1.49-4.879,0.181-3.633,3.605
				c0.92,2.526,0.998,4.446,0.998,4.446c-0.707-0.897-1.023-1.31-1.527-1.679c-1.002-0.732-1.875-0.326-2.166,0.012
				c-0.227,0.262,0.47,0.772,1.051,2.048c0.742,1.63,0.501,2.586,1.267,4.37c0.285,0.663,0.788,1.277,0.666,1.989
				c-0.64,3.74-1.783,7.303-2.994,11.206c-2.447-1.956-7.775-6.339-9.86-8.139c-3.157-2.725-4.699-4.142-6.816-5.56
				c-1.87-1.253-4.973-1.171-4.973-1.171c-0.747,3.218-1.228,8.955,0.961,12.404c1.098,1.731,2.872,4.099,4.728,4.07l0.39-1.46
				l7.795,5.334c0,0,1.646,1.154,5.651,3.447c4.005,2.294,6.556,2.288,8.006,1.03c1.009-0.876,1.837-3.247,2.789-8.955l-0.003,0.001
				c0.516-2.787,1.006-5.947,1.558-9.337C474.485,150.458,474.875,146.802,474.886,144.848z"/>
			<polygon style="fill:#F0997A;" points="448.291,161.383 445.165,159.017 448.036,162.337 			"/>
		</g>
		<g id="XMLID_1714_">
			<path id="XMLID_1765_" style="fill:#263238;" d="M433.238,140.614L433.238,140.614c7.3,0,13.218-5.918,13.218-13.218v-0.858
				c0-6.752-5.474-12.226-12.226-12.226h-1.984c-6.752,0-12.226,5.474-12.226,12.226v0.858
				C420.02,134.696,425.938,140.614,433.238,140.614z"/>
			<path style="fill:#263238;" d="M448.537,118.227c-1.565,2.711-5.702,3.253-9.241,1.21c-3.538-2.043-5.138-5.897-3.573-8.608
				c1.565-2.711,5.703-3.253,9.241-1.21C448.503,111.662,450.103,115.516,448.537,118.227z"/>
			<g id="XMLID_1720_">
				<path id="XMLID_1730_" style="fill:#FFBDA7;" d="M424.678,120.535c-1.39,1.275-3.127,4.045-2.988,12.134
					c0.118,6.856,2.244,8.561,3.314,9.055c1.069,0.494,3.138,0.208,5.15-0.13v4.941c0,0-2.302,2.395-1.421,4.846
					c0.641,1.783,4.077,1.151,6.665-0.706c3.09-2.217,3.443-3.875,3.443-3.875l0.088-10.206c0,0,1.177,1.202,3.191-0.612
					c1.663-1.498,2.234-4.036,0.95-5.406c-1.283-1.37-3.67-1.012-4.594,0.927c0,0-4.159-0.167-8.323-2.501
					C426.108,126.737,425.122,123.159,424.678,120.535z"/>
				<g id="XMLID_1728_">
					<path id="XMLID_1729_" style="fill:#263238;" d="M424.535,130.65c0.024,0.474-0.327,0.876-0.783,0.898
						c-0.457,0.022-0.846-0.345-0.87-0.82c-0.024-0.474,0.327-0.876,0.784-0.898C424.122,129.809,424.511,130.176,424.535,130.65z"
						/>
				</g>
				<g id="XMLID_1726_">
					<path id="XMLID_1727_" style="fill:#263238;" d="M431.103,130.65c0.024,0.474-0.327,0.876-0.784,0.898
						c-0.457,0.022-0.846-0.345-0.87-0.82c-0.024-0.475,0.327-0.876,0.783-0.898C430.69,129.809,431.079,130.176,431.103,130.65z"/>
				</g>
				<path id="XMLID_1725_" style="fill:#F0997A;" d="M430.104,136.504l-2.274,0.741c0.185,0.677,0.844,1.06,1.472,0.856
					C429.93,137.896,430.289,137.181,430.104,136.504z"/>
				<path id="XMLID_1724_" style="fill:#263238;" d="M422.548,128.095l1.682-1.2c-0.303-0.5-0.926-0.636-1.39-0.305
					C422.376,126.922,422.245,127.595,422.548,128.095z"/>
				<path id="XMLID_1723_" style="fill:#263238;" d="M438.465,130.69l0.022,2.901c-0.775,0.037-1.409-0.583-1.415-1.384
					C437.066,131.406,437.689,130.726,438.465,130.69z"/>
				<polygon id="XMLID_1722_" style="fill:#F0997A;" points="426.995,129.83 427.016,135.448 424.397,134.588 				"/>
				<path id="XMLID_1721_" style="fill:#F0997A;" d="M430.153,141.596c2.119-0.278,6.483-1.557,7.171-3.347
					c0,0-0.232,1.126-1.539,2.28c-1.308,1.154-5.62,2.45-5.62,2.45L430.153,141.596z"/>
			</g>
		</g>
	</g>
	<g id="Characters">
		<g>
			<path style="fill:#FFA8A7;" d="M259.822,291.581c0.522-2.415,0.007-6.604-2.955-7.258c-0.198-0.044-0.41-0.065-0.601,0.005
				c-0.319,0.117-0.498,0.449-0.644,0.757c-0.996,2.108-1.351,4.655-2.903,6.771l-0.721,0.028c-0.327,0.385-0.771,0.481-0.789-0.067
				c-0.015-0.454,0.186-1.011,0.306-1.447c0.245-0.889,0.661-1.992,0.13-2.858c-0.294-0.479-0.973-0.599-1.325-0.082
				c-1.017,1.494-2.036,2.932-2.854,4.564c-0.778,1.551-0.913,2.544-1.95,3.951c-1.691,2.295-3.452,3.649-6.799,5.948
				c-3.453,2.372-11.144,6.404-10.92,6.29l-0.606-2.418l-8.316,2.597c0,0,1.643,10.173,3.572,11.022
				c1.505,1.654,5.315,0.538,11.435-3.265c3.574-2.221,6.032-4.171,10.724-7.625c2.758-2.031,5.478-4.228,8.059-6.499
				c1.571-1.382,2.884-2.831,4.135-4.486C258.148,295.724,259.35,293.766,259.822,291.581L259.822,291.581L259.822,291.581z"/>
			<path style="fill:#27DEBF;" d="M212.773,284.924c0,0,4.949-0.766,8.121,2.047c3.173,2.813,7.104,20.228,7.104,20.228
				s-5.982,5.13-11.18,3.659C211.621,309.387,212.773,284.924,212.773,284.924z"/>
			<path style="opacity:0.3;" d="M212.773,284.924c0,0,4.949-0.766,8.121,2.047c3.173,2.813,7.104,20.228,7.104,20.228
				s-5.982,5.13-11.18,3.659C211.621,309.387,212.773,284.924,212.773,284.924z"/>
		</g>
		<g>
			<g id="XMLID_2170_">
				<polygon id="XMLID_2176_" style="fill:#FFA8A7;" points="190.117,425.116 197.506,425.116 198.49,412.026 190.117,413.336 				
					"/>
				<polygon id="XMLID_2175_" style="fill:#FFA8A7;" points="215.691,417.79 223.794,418.069 223.92,404.159 214.517,403.606 				
					"/>
				<path id="XMLID_2174_" style="fill:#455A64;" d="M190.117,332.396c-0.924,8.591,0.415,43.466,0.415,43.466
					c-0.153,1.802-1.888,5.007-2.023,11.499c-0.196,9.414,1.608,30.889,1.608,30.889s3.83,1.515,7.949-0.201
					c0,0,4.15-30.32,5.325-39.639c1.026-8.133,3.956-29.411,3.956-29.411l4.431,27.64c0,0-0.763,4.428-0.367,10.001
					c0.307,4.31,3.569,24.802,3.569,24.802s4.501,1.516,8.987,0c0,0,0.451-32.371,0.527-36.326
					c0.087-4.509-1.059-43.558-1.059-43.558L190.117,332.396z"/>
				<path id="XMLID_2171_" style="fill:#37474F;" d="M207.346,348.999c0,0,5.851-1.909,9.742-5.669c0,0-1.762,3.3-7.003,6.371
					l1.257,24.225L207.346,348.999z"/>
			</g>
			<g>
				<path id="XMLID_2180_" style="fill:#37474F;" d="M206.487,438.873c0.247,0.232,0.172,1.818-0.1,2.245
					c-0.292,0.458-1.968,1.888-4.998,2.105c-2.895,0.207-5.481-0.183-7.181-1.263c-1.7-1.079-2.523-2.27-2.683-3.919
					c-0.16-1.649,0.023-3.241-0.763-4.51c-0.726-1.172-1.883-2.494-2.135-3.129c-0.548-1.383-0.02-3.359-0.02-3.359L206.487,438.873
					z"/>
				<path id="XMLID_2179_" style="fill:#455A64;" d="M198.561,424.472c0.02,0.641,0.133,1.225,0.334,1.836
					c0.42,1.279,1.058,2.483,1.773,3.628c0.368,0.59,0.758,1.169,1.207,1.703c0.876,1.042,1.964,1.898,2.891,2.897
					c0.927,1,1.715,2.212,1.788,3.555c0.123,2.271-2.342,3.043-4.239,3.381c-2.027,0.361-4.19,0.252-6.167-0.31
					c-2.201-0.625-3.789-2.33-4.154-4.526c-0.105-0.63-0.066-1.275-0.141-1.91c-0.17-1.448-0.92-2.77-1.766-3.974
					c-0.491-0.698-1.025-1.38-1.355-2.163c-0.592-1.406-0.117-2.988,0.261-4.388c0.327-1.209,0.697-2.578,1.123-2.464
					c0.005,0.627-0.002,0.692,0.448,1.117c0.569,0.538,0.594,1.346,1.195,1.821c-0.282-0.736-0.3-1.049-0.422-1.615
					c-0.037-0.17,0.009-0.513,0.128-0.642c0.16-0.174,0.431-0.283,0.697-0.373c0.893-0.302,1.819-0.512,2.758-0.628
					c0.857-0.105,1.841-0.21,2.691-0.02c0.261,0.059,0.516,0.183,0.677,0.391c0.169,0.219,0.201,0.413,0.242,0.776
					C198.571,422.932,198.542,423.869,198.561,424.472z"/>
				<path id="XMLID_2173_" style="fill:#F5F5F5;" d="M200.975,430.414c-0.846-0.633-2.741-0.642-3.777-0.531
					c-1.298,0.139-2.348,0.594-2.945,1.034c-0.264,0.195-0.634,0.161-0.867-0.068l0,0c-0.28-0.276-0.254-0.731,0.064-0.965
					c0.632-0.465,1.777-1.12,3.314-1.228c2.55-0.18,3.298,0.257,3.298,0.257S201.225,429.661,200.975,430.414z"/>
				<path id="XMLID_2172_" style="fill:#F5F5F5;" d="M202.92,432.741c-1.064-0.628-3.148-0.538-4.184-0.427
					c-1.298,0.139-2.268,0.65-2.864,1.089c-0.264,0.195-0.634,0.161-0.867-0.069l0,0c-0.28-0.276-0.254-0.731,0.064-0.965
					c0.632-0.465,1.848-1.217,3.386-1.326c2.55-0.18,3.214,0.341,3.214,0.341S202.744,431.801,202.92,432.741z"/>
				<path id="XMLID_2168_" style="fill:#F5F5F5;" d="M195.749,426.214c1.762-0.182,2.509,0.015,3.205,0.269
					c0.449,0.252,0.745,0.962,0.456,1.141c-0.568-0.315-1.589-0.446-2.842-0.39c-0.84,0.037-1.899,0.377-2.757,0.758
					c-0.218,0.097-0.476,0.232-0.702,0.358c-0.305,0.169-0.693,0.049-0.839-0.261l0,0c-0.124-0.263-0.032-0.576,0.221-0.729
					C193.107,426.987,194.325,426.361,195.749,426.214z"/>
			</g>
			<g>
				<path id="XMLID_2167_" style="fill:#37474F;" d="M239.677,427.522c0.238,0.497,0.169,1.43-0.113,2.022
					c-0.282,0.591-3.372,2.333-7.539,2.053c-4.167-0.281-7.029-1.96-8.618-3.012c-1.589-1.052-3.243-1.249-5.307-1.367
					c-2.064-0.118-4.773-1.147-5.226-2.112c-0.453-0.965,0.068-2.627,0.068-2.627L239.677,427.522z"/>
				<path id="XMLID_2166_" style="fill:#455A64;" d="M222.86,414.517c0.109-0.023,0.219-0.046,0.33-0.068
					c0.181-0.036,0.37-0.072,0.55-0.03c0.204,0.048,0.372,0.193,0.514,0.347c0.448,0.487,0.719,1.107,1.064,1.671
					c0.874,1.425,2.707,2.605,4.71,3.682c1.361,0.732,2.695,1.299,4.101,1.932c1.434,0.645,3.337,1.039,4.459,1.795
					c1.635,1.102,1.846,3.871-0.016,4.965c-1.607,0.943-5.836,1.966-10.272,0.709c-2.416-0.685-5.098-3.266-8.27-3.514
					c-2.017-0.158-5.83-0.724-7.129-2.256c-0.48-0.679,0.161-2.832,0.687-4.691c0.574-2.029,1.12-5.195,1.793-5.016
					c0.028,0.399,0.089,0.487,0.351,0.758c0.249,0.257,0.584,0.421,0.855,0.652c0.499,0.426,0.805,1.027,1.115,1.605
					c0.134,0.25,0.294,0.516,0.573,0.621c0.34,0.128,0.594-0.087,0.892-0.224c0.374-0.172,0.81-0.203,1.205-0.086
					c-0.039-0.402-0.11-0.8-0.213-1.19c-0.033-0.126-0.069-0.26-0.03-0.384c0.04-0.126,0.15-0.214,0.258-0.29
					C221.165,414.958,221.968,414.709,222.86,414.517z"/>
				<path id="XMLID_2165_" style="fill:#F5F5F5;" d="M228.145,419.022c0,0-0.29-0.774-1.489-0.997
					c-0.918-0.171-2.538,0.506-3.546,1.336c-0.412,0.34-0.359,0.985,0.109,1.243l0,0c0.278,0.154,0.619,0.113,0.859-0.095
					C224.738,419.934,226.219,418.889,228.145,419.022z"/>
				<path id="XMLID_2164_" style="fill:#F5F5F5;" d="M230.989,420.615c0,0-0.593-0.927-1.765-0.909c0,0-2.396,0.069-3.879,1.451
					c-0.378,0.353-0.352,0.953,0.101,1.202v0c0.27,0.148,0.598,0.109,0.828-0.096C226.941,421.666,228.281,420.412,230.989,420.615z
					"/>
				<path id="XMLID_2163_" style="fill:#F5F5F5;" d="M234.129,422.05c0,0-0.661-0.839-1.833-0.821c0,0-2.233,0.083-3.716,1.466
					c-0.378,0.353-0.352,0.953,0.101,1.202l0,0c0.27,0.148,0.598,0.109,0.828-0.096C230.177,423.204,231.421,421.848,234.129,422.05
					z"/>
			</g>
		</g>
		<g id="XMLID_2158_">
			<path id="XMLID_2169_" style="fill:#FAFAFA;" d="M202.335,285.128c-1.393,0.335-4.426,0.558-7.708,1.728
				c-1.78,0.634-2.155,2.657-2.533,4.325c-1.213,5.339-1.423,16.54-1.423,16.54l-1.025,29.196c4.517,3.29,24.602,6.257,34.109-0.686
				c0,0-1.728-35.472-1.728-40.308c0-4.835-2.687-10.645-10.105-11.076L202.335,285.128z"/>
		</g>
		<g id="XMLID_2150_">
			<path style="fill:#263238;" d="M195.831,261.33c0.574-0.587,1.219-0.832,1.747-0.934l-2.276-1.222
				c0.471-0.952,1.597-1.324,2.514-0.832c0.884,0.475,1.244,1.578,0.847,2.509c0,0,10.031-6.069,13.644-6.069
				c4.957,0,9.785,1.688,8.116,8.77c-1.137,4.824-3.159,9.18-8.116,9.18c-3.894,0-11.688,6.804-11.688,6.804
				s-1.205-0.319-1.788-1.442c-0.583-1.123-2.038-7.956-2.038-7.956l0,0C195.302,266.385,194.634,262.554,195.831,261.33z"/>
			<path id="XMLID_2154_" style="fill:#FFA8A7;" d="M200.354,270.455c-0.549,0.328-1.333-0.727-2.011-1.436
				c-0.677-0.709-2.889-1.677-3.992,0.647c-1.124,2.369,0.974,5.499,2.715,6.046c3,0.942,3.451-0.983,3.451-0.983l0.222,11.154l0,0
				c2.075,2.66,5.424,3.514,7.933,3.068c2.002-0.356,3.751-1.468,1.836-3.685l-0.008-3.294c0,0,2.719,0.413,4.045,0.208
				c2.207-0.341,3.595-2.082,4.264-4.471c1.075-3.836,1.483-6.934,0.571-14.479c-1-8.27-10.619-8.356-15.813-5.087
				C198.373,261.413,200.354,270.455,200.354,270.455z"/>
			<path id="XMLID_2153_" style="fill:#263238;" d="M219.221,259.541c-1.814,1.473-2.995,2.26-6.501,2.385
				c-3.964,0.142-6.959-1.368-6.959-1.368c-0.185,0.747-0.363,1.588-1.035,2.272c-1.249,1.274-1.968,1.301-2.459,1.614
				c-0.189,1.487-0.183,3.398-0.274,4.894c-0.031,0.505-0.029,3.137-1.227,2.385c-0.392-0.246-0.759-0.842-1.045-1.172
				c-0.447-0.516-0.872-1.071-1.379-1.532c-0.947-0.862,0.275-8.669,0.275-8.669s-1.172-2.207,0.652-4.215
				c1.298-1.428,3.108-3.173,8.999-2.477c4.199,0.496,8.768,1.806,12.46-0.008C221.239,255.766,220.52,258.486,219.221,259.541z"/>
			<path id="XMLID_2151_" style="fill:#F28F8F;" d="M210.5,281.972c0,0-4.926-0.992-6.648-1.908
				c-1.152-0.613-2.102-1.674-2.38-2.355c0,0,0.323,1.462,1.352,2.778c1.259,1.61,7.676,2.795,7.676,2.795L210.5,281.972z"/>
		</g>
		<g id="XMLID_2143_">
			<path id="XMLID_2148_" style="fill:#263238;" d="M208.519,266.274l-2.331,0.895c-0.233-0.667,0.1-1.407,0.744-1.654
				C207.575,265.267,208.286,265.607,208.519,266.274z"/>
			<path id="XMLID_2147_" style="fill:#F28F8F;" d="M209.842,275.656l2.68,1.006c-0.265,0.768-1.08,1.166-1.821,0.888
				C209.961,277.273,209.576,276.425,209.842,275.656z"/>
			<path id="XMLID_2146_" style="fill:#263238;" d="M218.795,266.73l-2.307-1.005c0.256-0.653,0.98-0.957,1.617-0.679
				C218.741,265.323,219.051,266.077,218.795,266.73z"/>
			<polygon id="XMLID_2144_" style="fill:#F28F8F;" points="213.156,268.471 213.507,274.907 216.867,273.761 			"/>
			<g id="XMLID_994_">
				<path id="XMLID_995_" style="fill:#263238;" d="M209.991,269c0.026,0.52-0.358,0.961-0.859,0.985
					c-0.501,0.024-0.928-0.379-0.954-0.899c-0.026-0.52,0.359-0.961,0.859-0.985C209.538,268.078,209.965,268.48,209.991,269z"/>
			</g>
			<g id="XMLID_992_">
				<path id="XMLID_993_" style="fill:#263238;" d="M217.774,269c0.026,0.52-0.359,0.961-0.859,0.985
					c-0.501,0.024-0.928-0.379-0.954-0.899c-0.026-0.521,0.359-0.961,0.859-0.985C217.321,268.078,217.748,268.48,217.774,269z"/>
			</g>
		</g>
		<g>
			<path style="fill:#FFA8A7;" d="M226.548,325.272c0.238-0.781,0.276-1.644-0.022-2.404c-0.101-0.257-0.253-0.513-0.503-0.631
				c-0.324-0.153-0.707-0.028-1.036,0.115c-1.174,0.507-2.252,1.217-3.427,1.723c-1.175,0.506-2.51,0.801-3.732,0.426
				c0.051-0.246,0.264-0.42,0.463-0.573c0.497-0.382,0.993-0.764,1.49-1.146c0.641-0.493,1.348-1.119,1.307-1.927
				c-0.011-0.216-0.096-0.45-0.29-0.545c-0.16-0.078-0.35-0.043-0.524-0.004c-1.759,0.389-3.496,0.877-5.2,1.462
				c-1.593,0.547-3.103,1.274-4.763,1.597c-2.798,0.545-4.738,0.448-8.76-0.106c-4.022-0.554-8.084-2.071-11.894-3.153
				c1.254-6.76,4.831-20.601,5.461-25.7c0.779-6.305-1.739-6.658-1.739-6.658c-4.574,0.564-7.469,1.051-11.347,14.487
				c-1.627,5.636-4.075,17.221-4.165,22.349c-0.011,2.237,3.549,3.993,10.629,5.334c4.135,0.783,7.264,1.011,13.055,1.642
				c4.689,0.511,7.503,0.526,9.539,0.577c1.593,0.04,3.038,0.069,4.638-0.137c1.814-0.234,3.625-0.574,5.346-1.206
				c0.928-0.34,1.834-0.77,2.602-1.391c0.684-0.553,1.242-1.245,1.744-1.967C225.884,326.764,226.31,326.053,226.548,325.272z"/>
			<path style="fill:#27DEBF;" d="M194.628,286.856c0,0-3.95-0.26-6.134,1.384c-5.242,3.945-6.405,12.606-8.726,21.377
				c0,0,3.538,5.259,11.504,4.763l3.936-16.474C195.208,297.905,197.993,290.894,194.628,286.856z"/>
			<path style="opacity:0.3;" d="M194.628,286.856c0,0-3.95-0.26-6.134,1.384c-5.242,3.945-6.405,12.606-8.726,21.377
				c0,0,3.538,5.259,11.504,4.763l3.936-16.474C195.208,297.905,197.993,290.894,194.628,286.856z"/>
		</g>
	</g>
	<g id="Flags">
		<path style="fill:#27DEBF;" d="M266.712,286.506c0,0,3.16,15.053,3.23,20.28c0.066,4.921,8.037-13.314,8.269-24.609
			C278.211,282.177,269.526,285.568,266.712,286.506z"/>
		<path style="fill:#455A64;" d="M286.142,279.142c0,0,4.477,16.274,3.961,21.168c-0.516,4.895,8.029-15.04,8.199-26.336
			C298.302,273.975,290.111,277.328,286.142,279.142z"/>
		<path style="fill:#455A64;" d="M326.738,260.688c0,0,3.816,13.901,3.3,18.796c-0.516,4.895,7.508-13.681,7.678-24.977
			C337.716,254.506,329.775,259.004,326.738,260.688z"/>
		<path style="fill:#27DEBF;" d="M307.689,269.762c0,0,2.925,14.729,2.167,19.592c-0.758,4.863,8.176-13.894,8.906-25.168
			C318.761,264.186,311.61,267.951,307.689,269.762z"/>
		<path style="fill:#27DEBF;" d="M346.237,249.93c0,0,3.563,13.709,3.068,18.606c-0.496,4.897,7.418-13.51,7.542-24.807
			C356.846,243.729,350.779,247.465,346.237,249.93z"/>
		<path style="fill:#455A64;" d="M252.106,290.932c0.48-0.16,0.95-0.27,1.43-0.41c-0.22,0.45-0.48,0.89-0.8,1.32
			c-0.46,0.15-0.91,0.3-1.37,0.45l-0.31-0.52C251.376,291.342,251.766,291.042,252.106,290.932z"/>
		<path style="fill:#455A64;" d="M467.566,143.292c-2.39,3.78-17.62,27.06-48.93,55.21c-30.31,27.26-82.1,64.7-158.64,90.91
			c-0.01-0.34-0.04-0.68-0.1-1.02c76.23-26.15,127.82-63.44,158.04-90.6c33.98-30.55,48.98-55.21,49.13-55.45l0.32-0.48l0.06,0.39
			C467.456,142.282,467.586,143.302,467.566,143.292z"/>
	</g>
	<path id="Tie" style="fill:#455A64;" d="M252.733,291.859l0.367-0.543c-0.174-0.35-0.854-0.509-1.1-0.342
		c-2.66,1.802-3.069,5.121-2.598,8.102c0.489,3.094,1.83,6.068,1.947,9.217c0.24,6.441-4.165,11.892-4.526,18.247
		c-0.256,4.511,1.036,8.958,1.863,13.351c0.03,0.158,0.17,0.072,0.155-0.056c-0.471-3.96-1.25-7.91-1.119-11.916
		c0.109-3.345,1.203-6.44,2.408-9.525c1.087-2.783,2.206-5.609,2.394-8.624c0.198-3.171-0.89-6.085-1.607-9.121
		c-0.377-1.594-0.645-3.251-0.477-4.894C250.623,293.982,251.781,292.389,252.733,291.859z"/>
</g>
</svg>
